<?xml version="1.0" standalone="no"?>
<!DOCTYPE svg PUBLIC "-//W3C//DTD SVG 1.1//EN" "http://www.w3.org/Graphics/SVG/1.1/DTD/svg11.dtd" >
<svg xmlns="http://www.w3.org/2000/svg">
<metadata></metadata>
<defs>
<font id="font" horiz-adv-x="997" >
<font-face units-per-em="2048" ascent="1536" descent="-512" />
<missing-glyph horiz-adv-x="423" />
<glyph unicode="&#xfb01;" horiz-adv-x="944" d="M45 860v86h137v107q0 92 25.5 154.5t68.5 101.5t97.5 56t111.5 17q131 0 228 -67l-39 -86q-35 27 -81 45t-108 18q-90 0 -144 -55t-54 -190v-101h499v-946h-104v860h-395v-860h-105v860h-137z" />
<glyph unicode="&#xfb02;" horiz-adv-x="995" d="M45 860v86h137v115q0 88 27 149.5t71 100.5t99 55t113 16q66 0 116.5 -14t89.5 -37l64 37h24v-1186q0 -57 25 -79.5t63 -22.5q20 0 34 3t28 7v-90q-25 -6 -43.5 -8t-38.5 -2q-78 0 -125 44t-47 134v1075q-39 23 -86 38t-102 15q-88 0 -147.5 -54t-59.5 -185v-111h221v-86 h-221v-860h-105v860h-137z" />
<glyph horiz-adv-x="0" />
<glyph unicode="&#xd;" horiz-adv-x="423" />
<glyph horiz-adv-x="0" />
<glyph horiz-adv-x="0" />
<glyph unicode=" "  horiz-adv-x="423" />
<glyph unicode="&#x09;" horiz-adv-x="423" />
<glyph unicode="&#xa0;" horiz-adv-x="423" />
<glyph unicode="!" horiz-adv-x="460" d="M150 74q0 35 22.5 58.5t56.5 23.5q35 0 58.5 -23.5t23.5 -58.5t-23.5 -57.5t-58.5 -22.5t-57 22.5t-22 57.5zM162 1206h135l-31 -866h-71z" />
<glyph unicode="&#x22;" horiz-adv-x="591" d="M131 844v524h121l-51 -524h-70zM362 844v524h121l-53 -524h-68z" />
<glyph unicode="#" horiz-adv-x="1136" d="M51 436v84h275l63 211h-297v84h320l114 389h88l-112 -389h256l114 389h89l-113 -389h237v-84h-264l-61 -211h284v-84h-309l-127 -436h-88l127 436h-258l-127 -436h-88l127 436h-250zM414 520h258l63 211h-260z" />
<glyph unicode="$" horiz-adv-x="964" d="M63 303l103 21q18 -123 88 -184.5t180 -71.5v505q-66 20 -125 46t-105 64t-73 91t-27 133q0 82 28 141.5t74 97.5t105.5 56.5t122.5 22.5v176h74v-176q141 -10 231 -83t109 -233l-105 -16q-16 115 -75.5 174t-159.5 70v-475q72 -25 135.5 -52.5t110.5 -67.5t74.5 -96.5 t27.5 -138.5q0 -154 -97 -233.5t-251 -89.5v-201h-74v199q-160 6 -254 85.5t-117 235.5zM211 915q0 -96 57.5 -143t165.5 -84v449q-96 -8 -159.5 -60.5t-63.5 -161.5zM508 68q111 10 175.5 66.5t64.5 160.5q0 49 -14.5 86t-43 66.5t-74 54t-108.5 47.5v-481z" />
<glyph unicode="%" horiz-adv-x="1675" d="M76 846q0 82 18.5 150.5t54 118.5t87 78t116.5 28q63 0 114.5 -28t87.5 -78t54.5 -118.5t18.5 -150.5t-17.5 -150.5t-52.5 -119t-86 -78t-119 -27.5t-120 27.5t-86.5 78t-52 119t-17.5 150.5zM166 844q0 -63 12 -118.5t36 -95.5t58.5 -62.5t79.5 -22.5q43 0 78 22.5 t58.5 62.5t36 95t12.5 119q0 131 -47.5 214t-137.5 83q-92 0 -139 -83t-47 -214zM465 0l663 1208h84l-661 -1208h-86zM1049 362q0 82 18 151t54 119t87.5 77.5t116.5 27.5q66 0 117 -27.5t87 -77.5t54.5 -119t18.5 -151t-18.5 -150.5t-53.5 -118.5t-86 -77.5t-119 -27.5 t-119 27.5t-87 77.5t-53 119t-17 150zM1139 360q0 -63 12 -117.5t35.5 -94t58.5 -62.5t80 -23t80 23t58.5 62.5t35.5 94t12 117.5q0 131 -48 214t-138 83t-138 -82.5t-48 -214.5z" />
<glyph unicode="&#x26;" horiz-adv-x="1085" d="M59 293q0 123 73 209t204 145l-49 53q-43 45 -82 106.5t-39 147.5q0 125 81 198t214 73q143 0 219 -75t76 -189q0 -117 -66.5 -192t-200.5 -140l326 -340q35 55 56.5 134t25.5 167l98 -23q-10 -94 -36.5 -183t-75.5 -161l170 -174l-74 -67l-158 163q-72 -80 -171 -121.5 t-216 -41.5q-166 0 -270.5 76.5t-104.5 234.5zM162 295q0 -111 76.5 -170t195.5 -59q106 0 188.5 37.5t141.5 103.5l-369 379q-106 -49 -169.5 -114.5t-63.5 -176.5zM264 958q0 -57 26.5 -105t84.5 -108l55 -59q111 53 168 111.5t57 156.5q0 80 -46 134.5t-148 54.5 q-90 0 -143.5 -49.5t-53.5 -135.5z" />
<glyph unicode="'" horiz-adv-x="362" d="M131 844v524h121l-51 -524h-70z" />
<glyph unicode="(" horiz-adv-x="659" d="M162 477q0 145 26.5 270t72.5 235t108.5 205t136.5 181h121q-84 -102 -151.5 -200.5t-114 -205t-71 -225.5t-24.5 -260t24.5 -260t71 -224.5t114 -204.5t151.5 -202h-121q-74 86 -136.5 181.5t-108.5 205t-72.5 234.5t-26.5 270z" />
<glyph unicode=")" horiz-adv-x="659" d="M35 -414q84 102 151.5 201.5t113.5 205t70.5 224.5t24.5 260t-24.5 260t-70.5 225.5t-113.5 205t-151.5 200.5h119q74 -86 136 -181t108 -205t73 -234.5t27 -270.5q0 -145 -27 -270t-73 -234.5t-108.5 -205t-135.5 -181.5h-119z" />
<glyph unicode="*" horiz-adv-x="696" d="M88 983l31 88l198 -82l-16 217h94l-14 -217l199 84l28 -90l-213 -47l144 -170l-78 -53l-113 184l-112 -186l-76 57l141 168z" />
<glyph unicode="+" horiz-adv-x="1038" d="M100 473v70h379v368h72v-368h385v-70h-385v-397h-72v397h-379z" />
<glyph unicode="," horiz-adv-x="501" d="M123 -139q63 6 100 36.5t39 92.5q0 14 -2 18q-14 -10 -31 -10q-35 0 -54 21.5t-19 54.5q0 39 23.5 60.5t64.5 21.5t73.5 -33.5t32.5 -99.5q0 -106 -59.5 -159.5t-167.5 -60.5v58z" />
<glyph unicode="-" horiz-adv-x="763" d="M152 500v90h458v-90h-458z" />
<glyph unicode="." horiz-adv-x="503" d="M166 80q0 37 24.5 61.5t61.5 24.5t61.5 -24.5t24.5 -61.5t-24.5 -61.5t-61.5 -24.5t-61.5 24.5t-24.5 61.5z" />
<glyph unicode="/" horiz-adv-x="776" d="M29 -416l561 1786h100l-563 -1786h-98z" />
<glyph unicode="0" horiz-adv-x="1107" d="M100 602q0 129 30 242.5t88 197.5t143 133.5t194 49.5t192.5 -49.5t142 -133.5t88.5 -197.5t30 -242.5q0 -133 -30 -245.5t-86 -196.5t-141 -131t-196 -47t-196 47t-142 131t-87 196.5t-30 245.5zM207 600q0 -115 23.5 -212t68.5 -167.5t109.5 -111.5t144.5 -41 q82 0 145.5 41t108.5 111.5t68.5 167.5t23.5 212q0 117 -23.5 214t-68.5 168t-108.5 111t-145.5 40q-80 0 -144.5 -40t-109.5 -111t-68.5 -168t-23.5 -214z" />
<glyph unicode="1" horiz-adv-x="622" d="M27 1028v98l383 86v-1212h-105v1090z" />
<glyph unicode="2" horiz-adv-x="894" d="M59 891q0 63 22.5 123.5t68 106.5t115 75t161.5 29q76 0 145.5 -21.5t121.5 -67.5t83 -117t31 -169q0 -86 -29.5 -167t-79 -155.5t-113 -140t-129 -120t-130 -96.5t-115.5 -69v-8h625v-94h-760v82q111 80 221.5 167t200.5 182t146 198.5t56 218.5q0 141 -77.5 215 t-200.5 74q-66 0 -114 -19.5t-80.5 -53.5t-49 -78t-16.5 -95q0 -74 32.5 -132.5t84.5 -94.5l-82 -48q-25 16 -48.5 43t-44 62t-33 78t-12.5 92z" />
<glyph unicode="3" horiz-adv-x="868" d="M18 262l105 19q18 -111 93 -164.5t196 -53.5q123 0 200.5 65t77.5 179q0 127 -94 197.5t-305 77.5v86q190 16 277 77.5t87 190.5q0 102 -68.5 151.5t-170.5 49.5q-205 0 -248 -209l-102 22q23 119 110.5 197t245.5 78q70 0 132 -17.5t108.5 -52.5t74 -90t27.5 -129 q0 -131 -85 -211t-233 -92v-8q156 -6 253.5 -89t97.5 -231q0 -78 -31 -137t-83 -101t-121.5 -63.5t-147.5 -21.5q-176 0 -277.5 75.5t-118.5 204.5z" />
<glyph unicode="4" horiz-adv-x="999" d="M33 330v76l612 800h103v-790h202v-86h-202v-330h-103v330h-612zM145 410q16 0 39 2q18 2 46 3t67 1h348v475q0 47 1 83t3 60q2 29 4 51h-6q-12 -20 -29 -47q-16 -23 -37.5 -56.5t-54.5 -76.5l-264 -348q-29 -37 -49 -64.5t-37 -43.5q-18 -20 -31 -33v-6z" />
<glyph unicode="5" horiz-adv-x="901" d="M45 270l94 21q16 -117 90 -172.5t191 -55.5q63 0 116.5 18.5t93.5 55.5t62.5 94.5t22.5 135.5q0 143 -74 222t-197 79q-72 0 -120 -27t-84 -61h-84l24 626h590v-94h-498l-18 -450q33 35 85 61.5t132 26.5q74 0 138.5 -25t110.5 -72t72.5 -117.5t26.5 -164.5 q0 -96 -29.5 -169t-84 -122t-128 -73.5t-161.5 -24.5q-174 0 -265.5 79.5t-105.5 208.5z" />
<glyph unicode="6" horiz-adv-x="1003" d="M100 569q0 168 37 291t99.5 204t146.5 121t178 40q254 0 338 -236l-94 -37q-63 184 -250 185q-154 0 -252 -141.5t-102 -426.5v-86h4q23 139 112 212t220 73q90 0 161.5 -28.5t120.5 -81t76 -124t27 -157.5q0 -80 -26 -151.5t-76 -126t-123.5 -86t-172.5 -31.5 q-106 0 -189 42t-138 132q-47 72 -72 174t-25 239zM233 371q0 -68 21.5 -123t60.5 -96t92.5 -63.5t116.5 -22.5q135 0 215 85t80 220q0 137 -80 222t-215 85q-66 0 -119 -22.5t-91 -62.5t-59.5 -97t-21.5 -125z" />
<glyph unicode="7" horiz-adv-x="860" d="M35 938v268h784v-76l-444 -1130h-107l439 1116h-572v-178h-100z" />
<glyph unicode="8" horiz-adv-x="976" d="M94 307q0 117 66.5 196t177.5 105v8q-100 29 -157.5 102t-57.5 187q0 72 26.5 131.5t74.5 101.5t115 64.5t148 22.5q82 0 150 -22.5t116 -64.5t74.5 -101.5t26.5 -131.5q0 -115 -57.5 -187.5t-157.5 -101.5v-8q111 -27 177.5 -105.5t66.5 -195.5q0 -78 -29 -138t-81 -101 t-125 -63.5t-161 -22.5q-86 0 -158.5 22.5t-124.5 63.5t-81 101t-29 138zM199 317q0 -121 78.5 -187.5t209.5 -66.5q133 0 212 67t79 187q0 125 -83 189.5t-208 64.5t-206.5 -64.5t-81.5 -189.5zM227 905q0 -125 72 -186.5t188 -61.5q117 0 189 61.5t72 186.5 q0 111 -68 174.5t-193 63.5q-123 0 -191.5 -63.5t-68.5 -174.5z" />
<glyph unicode="9" horiz-adv-x="1017" d="M88 823q0 80 24.5 153t74 128t124 88t174.5 33q109 0 193 -42t139 -130q47 -72 74 -173.5t27 -236.5q0 -332 -127 -496.5t-340 -164.5q-141 0 -228.5 59t-128.5 174l92 39q33 -92 97.5 -140t169.5 -48q90 0 158.5 42t114.5 117.5t68.5 182t22.5 235.5v90h-6 q-18 -147 -111.5 -223t-224.5 -76q-90 0 -161.5 30t-122 82t-77 122.5t-26.5 154.5zM188 831q0 -139 81 -225t216 -86q63 0 117.5 22.5t93.5 63.5t60.5 98t21.5 127q0 68 -21.5 124.5t-60.5 97.5t-93 63.5t-118 22.5q-135 0 -216 -85t-81 -223z" />
<glyph unicode=":" horiz-adv-x="503" d="M166 80q0 37 24.5 61.5t61.5 24.5t61.5 -24.5t24.5 -61.5t-24.5 -61.5t-61.5 -24.5t-61.5 24.5t-24.5 61.5zM166 803q0 37 24.5 61.5t61.5 24.5t61.5 -24.5t24.5 -61.5t-24.5 -61.5t-61.5 -24.5t-61.5 24.5t-24.5 61.5z" />
<glyph unicode=";" horiz-adv-x="501" d="M123 -139q63 6 100 36.5t39 92.5q0 14 -2 18q-14 -10 -31 -10q-35 0 -54 21.5t-19 54.5q0 39 23.5 60.5t64.5 21.5t73.5 -33.5t32.5 -99.5q0 -106 -59.5 -159.5t-167.5 -60.5v58zM156 803q0 37 24.5 61.5t63.5 24.5q37 0 61.5 -24.5t24.5 -61.5t-24.5 -61.5t-61.5 -24.5 q-39 0 -63.5 24.5t-24.5 61.5z" />
<glyph unicode="&#x3c;" horiz-adv-x="794" d="M100 506l518 434l46 -55l-455 -379l455 -383l-46 -53z" />
<glyph unicode="=" horiz-adv-x="1038" d="M100 336v70h836v-70h-836zM100 596v72h836v-72h-836z" />
<glyph unicode="&#x3e;" horiz-adv-x="794" d="M119 123l454 383l-452 379l43 55l516 -434l-516 -436z" />
<glyph unicode="?" horiz-adv-x="792" d="M16 952q25 117 112 195t243 78q168 0 266 -95.5t98 -250.5q0 -92 -31.5 -160t-83 -113t-117 -67.5t-134.5 -24.5v-192h-99v262h58q63 0 117.5 16t95.5 52t64.5 90.5t23.5 129.5q0 133 -74 199t-190 66q-104 0 -171 -54.5t-88 -162.5zM240 74q0 35 23.5 58.5t58.5 23.5 t57 -23.5t22 -58.5t-22.5 -57.5t-56.5 -22.5q-35 0 -58.5 22.5t-23.5 57.5z" />
<glyph unicode="@" horiz-adv-x="1773" d="M94 399q0 180 55.5 332t160 260.5t255 169t340.5 60.5q195 0 339.5 -56.5t239.5 -153t141 -225.5t46 -274q0 -123 -18.5 -220t-59.5 -165t-104.5 -104.5t-155.5 -36.5t-151.5 45t-63.5 139q-31 -98 -105.5 -143t-178.5 -45q-70 0 -131.5 25.5t-106.5 76.5t-71.5 129 t-26.5 182q0 215 96 328t270 113q102 0 168 -48.5t86 -111.5l33 145h63v-622q0 -70 33 -104t92 -34q63 0 108.5 32t74 91.5t42 141.5t13.5 184q0 147 -50 264t-139.5 197t-213 123t-273.5 43t-278.5 -48.5t-225 -141.5t-152 -231t-55.5 -317q0 -197 64.5 -335t171 -224 t246 -126t291.5 -40q98 0 192 13.5t184 48.5l21 -84q-88 -29 -185.5 -45.5t-213.5 -16.5q-164 0 -320 41t-277.5 136.5t-195.5 250t-74 381.5zM598 397q0 -168 71.5 -251t192.5 -83q45 0 91 15.5t82 49.5t59.5 84t23.5 122v166q0 68 -21.5 116t-57 78.5t-80 45t-89.5 14.5 q-59 0 -109 -19.5t-86 -62.5t-56.5 -110.5t-20.5 -164.5z" />
<glyph unicode="A" horiz-adv-x="1095" d="M20 0l459 1206h142l454 -1206h-114l-144 383h-541l-143 -383h-113zM309 475h473l-133 359q-27 70 -45 124t-31 95q-14 45 -22 82h-8q-8 -35 -23 -80q-12 -39 -30.5 -94.5t-45.5 -124.5z" />
<glyph unicode="B" horiz-adv-x="1026" d="M178 0v1206h332q195 0 285 -75.5t90 -229.5q0 -123 -61.5 -190.5t-159.5 -83.5v-6q53 -4 103 -22.5t88 -54.5t60.5 -88.5t22.5 -119.5q0 -158 -101.5 -247t-322.5 -89h-336zM287 92h237q147 0 227 58.5t80 189.5q0 106 -73.5 167.5t-229.5 61.5h-241v-477zM287 659h227 q117 0 189.5 52.5t72.5 175.5t-71.5 175t-206.5 52h-211v-455z" />
<glyph unicode="C" horiz-adv-x="1130" d="M98 600q0 152 40 268.5t110.5 195.5t170 120t220.5 41q315 0 430 -287l-96 -47q-43 121 -130 181.5t-210 60.5q-203 0 -312.5 -142.5t-109.5 -390.5q0 -246 104.5 -384t309.5 -138q133 0 220 53t146 168l78 -61q-70 -129 -177.5 -192.5t-270.5 -63.5q-117 0 -213.5 39.5 t-165 117.5t-106.5 194t-38 267z" />
<glyph unicode="D" horiz-adv-x="1189" d="M178 0v1206h334q127 0 233.5 -32.5t183.5 -103.5t120 -182.5t43 -271.5q0 -168 -47.5 -284.5t-127 -190t-185 -107.5t-222.5 -34h-332zM287 92h213q219 0 349 129t130 391q0 131 -33 226.5t-94 157t-148.5 90t-193.5 28.5h-223v-1022z" />
<glyph unicode="E" horiz-adv-x="970" d="M178 0v1206h686v-94h-577v-461h514v-94h-514v-463h577v-94h-686z" />
<glyph unicode="F" horiz-adv-x="892" d="M178 0v1206h658v-94h-549v-461h485v-94h-485v-557h-109z" />
<glyph unicode="G" horiz-adv-x="1216" d="M98 600q0 152 40 268.5t110.5 195.5t170 120t220.5 41q322 0 430 -287l-96 -47q-43 121 -130 181.5t-210 60.5q-203 0 -312.5 -142.5t-109.5 -390.5q0 -121 26.5 -217t79 -166t129 -106.5t179.5 -36.5q66 0 128 17.5t110 56t78 101t30 150.5v93h-326v98h434v-590h-94 l-14 207q-33 -106 -130.5 -165.5t-219.5 -59.5q-117 0 -213.5 39.5t-165 118.5t-106.5 194t-38 266z" />
<glyph unicode="H" horiz-adv-x="1269" d="M178 0v1206h109v-549h696v549h107v-1206h-107v561h-696v-561h-109z" />
<glyph unicode="I" horiz-adv-x="464" d="M178 0v1206h109v-1206h-109z" />
<glyph unicode="J" horiz-adv-x="872" d="M18 223l88 56q45 -109 110 -157t169 -48q125 0 183.5 73.5t58.5 231.5v827h106v-854q0 -104 -28.5 -175t-76.5 -115t-111.5 -62t-135.5 -18q-74 0 -132.5 18t-102.5 51t-75.5 77t-52.5 95z" />
<glyph unicode="K" horiz-adv-x="1024" d="M178 0v1206h109v-549h106l441 549h129l-482 -592l512 -614h-135l-469 561h-102v-561h-109z" />
<glyph unicode="L" horiz-adv-x="892" d="M178 0v1206h109v-1112h561v-94h-670z" />
<glyph unicode="M" horiz-adv-x="1439" d="M178 0v1206h133l353 -669q16 -31 27 -55.5t18 -41.5q8 -20 12 -32h6q4 12 12 32q6 16 17.5 41t27.5 56l351 669h127v-1206h-107v848v95t2 71q2 33 4 55h-6q-8 -23 -20 -55q-10 -29 -29 -68t-47 -92l-297 -553h-84l-297 553q-29 53 -47.5 92t-28.5 68l-20 55h-6 q0 -23 2 -55q2 -29 3 -71t1 -95v-848h-107z" />
<glyph unicode="N" horiz-adv-x="1288" d="M178 0v1206h117l573 -839q29 -43 53.5 -83t43.5 -71q23 -37 39 -70h6q-2 35 -4 76q-2 35 -2 81v97v809h106v-1206h-115l-575 840q-29 41 -53.5 79.5t-42.5 71.5q-23 37 -39 72h-9q2 -35 5 -76q2 -35 3 -81t1 -97v-809h-107z" />
<glyph unicode="O" horiz-adv-x="1245" d="M98 602q0 150 37 265.5t105.5 195.5t165 121t217.5 41q119 0 216 -41t165.5 -121t105.5 -195.5t37 -265.5t-37 -265.5t-105.5 -194.5t-165.5 -119.5t-216 -40.5q-121 0 -217.5 40.5t-165 119.5t-105.5 195t-37 265zM211 602q0 -248 104.5 -387t307.5 -139t308 139 t105 387t-105 388t-308 140t-307.5 -140t-104.5 -388z" />
<glyph unicode="P" horiz-adv-x="972" d="M178 0v1206h324q215 0 312 -94t97 -262q0 -182 -99 -278.5t-302 -96.5h-223v-475h-109zM287 565h213q162 0 230.5 71t68.5 210q0 131 -73 199.5t-228 68.5h-211v-549z" />
<glyph unicode="Q" horiz-adv-x="1245" d="M98 602q0 150 37 265.5t105.5 195.5t165 121t217.5 41q119 0 216 -41t165.5 -121t105.5 -195.5t37 -265.5q0 -141 -34 -253.5t-97.5 -191.5t-151.5 -123t-198 -50q45 -94 121.5 -132t181.5 -38q29 0 57 6l-29 -94q-10 -2 -23 -3.5t-30 -1.5q-162 0 -257 72t-132 193 q-211 23 -334 180.5t-123 435.5zM211 602q0 -248 104.5 -388t307.5 -140t308 140t105 388t-105 388t-308 140t-307.5 -140t-104.5 -388z" />
<glyph unicode="R" horiz-adv-x="1085" d="M178 0v1206h373q205 0 300 -86t95 -246q0 -72 -22.5 -126t-61.5 -92t-90 -59.5t-106 -23.5v-4q90 -10 142 -55t79 -147l57 -234q20 -80 68 -133h-119q-23 25 -35 50.5t-22 70.5l-50 215q-27 111 -91 152.5t-181 41.5h-227v-530h-109zM287 623h262q285 0 285 245 q0 121 -69 183.5t-216 62.5h-262v-491z" />
<glyph unicode="S" horiz-adv-x="952" d="M63 303l103 21q23 -131 100.5 -193.5t200.5 -62.5q129 0 205 56t76 171q0 53 -16.5 93t-51.5 72t-90 57.5t-135 51.5q-68 20 -131.5 46t-111.5 63t-78 92t-30 137q0 88 31 149.5t82 99.5t114.5 54.5t131.5 16.5q158 0 262 -73t123 -245l-105 -16q-16 127 -87.5 186.5 t-190.5 59.5q-109 0 -181.5 -54.5t-72.5 -169.5q0 -57 20.5 -95t60.5 -66.5t96 -50t130 -46.5q70 -23 132.5 -50t107.5 -67t71.5 -96.5t26.5 -136.5q0 -82 -29.5 -143.5t-82 -101t-124 -60t-155.5 -20.5q-174 0 -275.5 78.5t-126.5 242.5z" />
<glyph unicode="T" horiz-adv-x="952" d="M29 1112v94h895v-94h-394v-1112h-108v1112h-393z" />
<glyph unicode="U" horiz-adv-x="1175" d="M139 412v794h109v-772q0 -98 26.5 -166.5t72.5 -112.5t107.5 -63.5t133.5 -19.5q70 0 132 19.5t109.5 62.5t74 111.5t26.5 164.5v776h106v-794q0 -117 -36.5 -199t-99 -133t-143.5 -74.5t-169 -23.5t-169 23.5t-143.5 74.5t-99.5 133t-37 199z" />
<glyph unicode="V" horiz-adv-x="1052" d="M29 1206h116l306 -880q23 -66 36 -113t23 -78q10 -37 16 -61h6q6 23 15 59q8 31 21.5 78t35.5 113l307 882h111l-424 -1206h-145z" />
<glyph unicode="W" horiz-adv-x="1615" d="M29 1206h114l226 -823q18 -72 31.5 -129t23.5 -98q10 -49 18 -86h7q8 37 18 86q10 41 22.5 98t32.5 127l232 825h118l226 -825q18 -70 31.5 -126t23.5 -97q10 -49 18 -88h9q8 37 18 84q10 41 22.5 97t32.5 128l226 827h108l-338 -1206h-151l-219 801q-20 70 -32.5 125 t-21.5 96q-8 47 -14 82h-6q-6 -35 -14 -80q-16 -82 -54 -223l-219 -801h-151z" />
<glyph unicode="X" horiz-adv-x="1028" d="M29 0l424 616l-400 590h125l250 -375q29 -43 44 -69.5t26 -42.5q10 -18 14 -27h6q4 10 14 29q10 16 25.5 41.5t44.5 66.5l250 377h117l-396 -579l424 -627h-118l-279 410q-29 39 -44 64.5t-26 41.5q-10 18 -14 29h-6q-6 -10 -16 -29q-10 -16 -26.5 -41.5t-43.5 -66.5 l-274 -408h-121z" />
<glyph unicode="Y" horiz-adv-x="960" d="M29 1206h123l241 -442q29 -51 46.5 -87t27.5 -59l20 -45h7q6 18 18 45q10 23 26.5 59t45.5 87l233 442h113l-389 -723v-483h-107v483z" />
<glyph unicode="Z" horiz-adv-x="952" d="M57 0v63l594 898q25 37 44.5 65.5t33.5 46.5q16 23 29 37v6q-14 -2 -37 -2q-20 -2 -54 -2h-81h-506v94h811v-73l-594 -887q-25 -39 -44.5 -66.5t-33.5 -46.5q-16 -23 -29 -37v-6q14 0 37 2q20 0 53 1t82 1h541v-94h-846z" />
<glyph unicode="[" horiz-adv-x="643" d="M182 -416v1786h398v-82h-299v-1622h299v-82h-398z" />
<glyph unicode="\" horiz-adv-x="776" d="M86 1370h98l561 -1786h-98z" />
<glyph unicode="]" horiz-adv-x="643" d="M63 -334h299v1622h-299v82h398v-1786h-398v82z" />
<glyph unicode="^" horiz-adv-x="983" d="M80 676l371 692h81l371 -692h-110l-201 387q-29 53 -47.5 94t-28.5 70q-12 33 -20 57h-7q-8 -25 -20 -57q-10 -29 -29.5 -70t-48.5 -94l-205 -387h-106z" />
<glyph unicode="_" horiz-adv-x="929" d="M111 -90h708v-88h-708v88z" />
<glyph unicode="`" horiz-adv-x="641" d="M172 1370h145l146 -278h-88z" />
<glyph unicode="a" horiz-adv-x="927" d="M82 236q0 145 111.5 223t341.5 78q29 0 57.5 -1t60.5 -6v132q0 121 -62.5 168t-158.5 47q-92 0 -151.5 -43t-69.5 -148l-96 14q6 76 35.5 126.5t74.5 81t101.5 44t115.5 13.5q63 0 121 -14.5t101 -48.5t68.5 -90t25.5 -138v-477q0 -66 19.5 -92.5t56.5 -26.5q27 0 43 8 v-86q-12 -4 -27.5 -6t-36.5 -2q-72 0 -110.5 39t-43.5 129q-35 -92 -114.5 -135t-175.5 -43q-131 0 -209 66.5t-78 187.5zM186 246q0 -82 51.5 -131t151.5 -49q49 0 96 15t85 44t60.5 73t22.5 99v156q-25 4 -47 5t-51 1q-180 0 -274.5 -51.5t-94.5 -161.5z" />
<glyph unicode="b" horiz-adv-x="1050" d="M156 0v1368h104v-631q31 111 118 169.5t200 58.5q172 0 275 -120t103 -353q0 -115 -27.5 -209.5t-79.5 -161t-127 -103t-169 -36.5q-129 0 -203 57t-100 135l-25 -174h-69zM260 371q0 -80 24.5 -138.5t64.5 -96.5t89 -55.5t101 -17.5q66 0 122 25t98 77t66.5 131 t24.5 187q0 199 -80 295t-211 96q-59 0 -113.5 -20t-95.5 -61t-65.5 -102.5t-24.5 -143.5v-176z" />
<glyph unicode="c" horiz-adv-x="915" d="M94 469q0 238 107.5 367t298.5 129q152 0 235.5 -76t95.5 -225l-96 -15q-29 225 -241 225q-147 0 -223 -109.5t-76 -297.5q0 -186 79.5 -292.5t221.5 -106.5q209 0 258 194l88 -18q-25 -141 -121 -201.5t-234 -60.5q-180 0 -286.5 122.5t-106.5 364.5z" />
<glyph unicode="d" horiz-adv-x="1050" d="M94 459q0 248 108.5 377t303.5 129q55 0 102 -15.5t84 -41t62.5 -60.5t36.5 -72v592h104v-1368h-90l-14 199q-35 -111 -121 -164t-199 -53q-78 0 -146.5 29.5t-119.5 89t-81 148.5t-30 210zM199 461q0 -199 81.5 -296t217.5 -97q51 0 103 18t94 57t69 99.5t27 142.5v193 q0 80 -26 136t-66 93t-91 54.5t-100 17.5q-66 0 -123 -24t-98 -74t-64.5 -129t-23.5 -191z" />
<glyph unicode="e" horiz-adv-x="937" d="M94 471q0 236 108.5 365t297.5 129q86 0 150.5 -29t108.5 -79t65.5 -118.5t21.5 -150.5q0 -35 -4 -67t-8 -54h-639q0 -193 81 -297t226 -104q102 0 162.5 44t87.5 142l92 -21q-27 -135 -121 -192t-229 -57q-184 0 -292 122.5t-108 366.5zM199 553h542q2 14 2 26.5v28.5 q0 57 -16 106.5t-48 86.5t-78 57.5t-107 20.5q-133 0 -207 -86t-88 -240z" />
<glyph unicode="f" horiz-adv-x="526" d="M45 860v86h137v133q0 82 21.5 139.5t59.5 94.5t88 53t108 16q104 0 178 -45l-29 -90q-35 23 -69.5 36t-77.5 13q-84 0 -129 -51t-45 -168v-131h241v-86h-241v-860h-105v860h-137z" />
<glyph unicode="g" horiz-adv-x="942" d="M25 -170q0 106 70.5 168.5t180.5 69.5q-61 4 -95 41.5t-34 95.5q0 53 30 91t89 56q-78 39 -122 111t-44 172q0 154 97.5 242t257.5 88q176 0 274 -105q74 41 84 168l94 -31q-8 -80 -46 -125t-91 -65q41 -72 41 -172q0 -78 -27.5 -138.5t-74.5 -101.5t-112 -62.5 t-140 -21.5q-80 0 -138 21q-80 -37 -79 -111q0 -98 137 -98h215q70 0 127 -14.5t98 -45t63.5 -77.5t22.5 -115q0 -90 -43 -148.5t-110.5 -92t-152.5 -48t-169 -14.5q-78 0 -149.5 12t-129 43t-91 81t-33.5 126zM125 -162q0 -53 24.5 -89t66.5 -58.5t98.5 -32.5t121.5 -10 q72 0 138.5 10t116.5 34.5t81 65.5t31 103q0 78 -51.5 123t-161.5 45h-201q-117 0 -190.5 -44.5t-73.5 -146.5zM203 637q0 -113 67.5 -179.5t184.5 -66.5q115 0 183.5 63.5t68.5 182.5t-69 182.5t-183 63.5q-117 -2 -184.5 -65.5t-67.5 -180.5z" />
<glyph unicode="h" horiz-adv-x="1003" d="M158 0v1368h104v-637q29 104 106.5 169t198.5 65q125 0 208 -71t83 -228v-666h-104v639q0 113 -54.5 173t-154.5 60q-57 0 -108.5 -19t-90.5 -61t-61.5 -105.5t-22.5 -149.5v-537h-104z" />
<glyph unicode="i" horiz-adv-x="419" d="M133 1237q0 35 21.5 57.5t54.5 22.5q35 0 57.5 -22.5t22.5 -57.5q0 -33 -22.5 -54.5t-57.5 -21.5q-33 0 -54.5 21.5t-21.5 54.5zM158 0v946h104v-946h-104z" />
<glyph unicode="j" horiz-adv-x="419" d="M-86 -328q12 -1 23 -1q106 0 161 51q60 55 60 186v1038h104v-1028q0 -186 -89 -262q-85 -72 -242 -72h-17v88zM133 1237q0 35 22.5 57.5t55.5 22.5t55.5 -22.5t22.5 -57.5q0 -33 -22.5 -54.5t-55.5 -21.5t-55.5 21.5t-22.5 54.5z" />
<glyph unicode="k" horiz-adv-x="878" d="M158 0v1368h104v-829h74l362 407h129l-401 -442l440 -504h-133l-389 453h-82v-453h-104z" />
<glyph unicode="l" horiz-adv-x="460" d="M143 168v1200h105v-1186q0 -57 24.5 -79.5t63.5 -22.5q20 0 33.5 3t29.5 7v-90q-27 -6 -45 -8t-37 -2q-80 0 -127 44t-47 134z" />
<glyph unicode="m" horiz-adv-x="1552" d="M158 0v946h80l14 -215q31 113 111.5 173.5t191.5 60.5q113 0 181.5 -55.5t82.5 -180.5q31 115 113 175.5t192 60.5q125 0 203 -70t78 -223v-672h-105v639q0 113 -50 173t-148 60q-53 0 -102.5 -21.5t-86 -63.5t-58 -105.5t-21.5 -144.5v-537h-105v639q0 113 -49 173 t-148 60q-55 0 -104 -21.5t-86 -63.5t-58.5 -105.5t-21.5 -144.5v-537h-104z" />
<glyph unicode="n" horiz-adv-x="1007" d="M158 0v946h80l14 -217q33 109 115 172.5t202 63.5q61 0 114.5 -17.5t91.5 -53.5t60.5 -92.5t22.5 -135.5v-666h-104v639q0 113 -53.5 173t-155.5 60q-55 0 -106.5 -19t-90.5 -61t-62.5 -105.5t-23.5 -149.5v-537h-104z" />
<glyph unicode="o" d="M94 477q0 242 108.5 365t295.5 123q190 0 297.5 -123t107.5 -365t-107.5 -368.5t-297.5 -126.5q-186 0 -295 127t-109 368zM197 477q0 -205 76.5 -308t224.5 -103q147 0 225 103t78 308q0 201 -78 300.5t-225 99.5t-224 -99.5t-77 -300.5z" />
<glyph unicode="p" horiz-adv-x="1052" d="M158 -416v1362h80l14 -209q18 57 52 100.5t78 71t95 42t105 14.5q172 0 274 -119t102 -354q0 -115 -27.5 -209.5t-79.5 -161t-127 -103t-169 -36.5q-123 0 -194.5 55t-98.5 131v-584h-104zM262 371q0 -80 24.5 -138.5t64.5 -96.5t90.5 -55.5t101.5 -17.5q66 0 122 25 t98 77t65.5 131t23.5 187q0 199 -80 295t-211 96q-59 0 -113.5 -20t-95.5 -61t-65.5 -102.5t-24.5 -143.5v-176z" />
<glyph unicode="q" horiz-adv-x="1052" d="M94 459q0 248 108.5 377t303.5 129q109 0 185.5 -56.5t99.5 -130.5l32 168h72v-1362h-104v615q-35 -111 -121 -164t-199 -53q-78 0 -146.5 29.5t-119.5 89t-81 148.5t-30 210zM199 461q0 -199 81.5 -296t217.5 -97q51 0 103 18t94 58t69 99.5t27 143.5v191q0 80 -26 136 t-66 93t-91 54.5t-100 17.5q-66 0 -123 -24t-98 -74t-64.5 -129t-23.5 -191z" />
<glyph unicode="r" horiz-adv-x="673" d="M158 0v946h86l14 -268q23 129 101.5 207t209.5 78q37 0 64 -11l-10 -114q-31 14 -88 14q-59 0 -109.5 -27.5t-86.5 -76t-56.5 -115t-20.5 -141.5v-492h-104z" />
<glyph unicode="s" horiz-adv-x="817" d="M59 219l99 29q16 -96 81.5 -140.5t166.5 -44.5q109 0 172 39t63 129q0 78 -45 122t-143 67l-123 31q-117 29 -176.5 85t-59.5 166q0 72 26.5 122t71 81t100.5 45.5t118 14.5q137 0 220 -57.5t101 -192.5l-100 -13q-12 94 -66.5 137.5t-154.5 43.5q-98 0 -157.5 -42 t-59.5 -128q0 -76 39.5 -113t129.5 -59l121 -31q57 -16 105.5 -36.5t81 -51.5t51 -75t18.5 -105q0 -68 -24.5 -117t-69.5 -81t-105.5 -47t-133.5 -15q-145 0 -231.5 57t-115.5 180z" />
<glyph unicode="t" horiz-adv-x="628" d="M25 860v86h137v201l104 14v-215h283v-86h-285v-620q0 -90 38 -129t101 -39q51 0 87 13t75 44l29 -84q-37 -33 -89 -48t-114 -15q-111 0 -170 61t-59 178v639h-137z" />
<glyph unicode="u" d="M141 293v653h105v-641q0 -127 53 -185.5t158 -58.5q55 0 105 22.5t88 66t61.5 105.5t23.5 142v549h105v-946h-88l-15 207q-31 -111 -110.5 -168t-196.5 -57q-129 0 -209 71.5t-80 239.5z" />
<glyph unicode="v" horiz-adv-x="854" d="M25 946h114l228 -647q18 -53 29.5 -95t19.5 -73q8 -37 14 -63h6l13 61q6 29 17 72t30 96l223 649h108l-335 -946h-123z" />
<glyph unicode="w" horiz-adv-x="1292" d="M25 946h108l164 -594q18 -70 30.5 -122t20.5 -87q8 -41 12 -69h7q2 29 10 69q6 35 17.5 86.5t31.5 122.5l168 594h111l167 -594q20 -72 33 -124t19 -87q8 -41 10 -67h6q2 29 10 67q6 35 17.5 87.5t31.5 123.5l162 594h107l-267 -946h-127l-161 563q-20 72 -32.5 123 t-18.5 86q-8 39 -13 68h-6l-12 -68q-8 -35 -19.5 -86t-31.5 -123l-158 -563h-127z" />
<glyph unicode="x" horiz-adv-x="827" d="M29 0l327 481l-309 465h121l168 -258q27 -41 41 -66.5t24 -41.5q8 -18 15 -27h6q4 8 12 27q8 16 22.5 40.5t41.5 65.5l170 260h114l-309 -463l326 -483h-117l-190 281q-27 39 -41.5 63.5t-22.5 40.5q-8 18 -10 27h-8q-4 -8 -13 -27q-8 -16 -23.5 -41t-43.5 -65l-189 -279 h-112z" />
<glyph unicode="y" horiz-adv-x="854" d="M-4 -397l12 90q57 -33 123 -33q43 0 76 16.5t62.5 51t56 92t55.5 141.5l-356 985h112l228 -651q33 -100 49 -164q8 -35 14 -61h6q6 25 15 59q8 29 20 70t29 92l223 655h108l-350 -995q-35 -102 -71.5 -173t-78.5 -117t-91.5 -66.5t-108.5 -20.5q-35 0 -70.5 8t-62.5 21z " />
<glyph unicode="z" horiz-adv-x="792" d="M49 0v59l443 646q25 37 45 65.5t34 46.5q16 23 31 37v6q-16 -2 -41 -2q-23 -2 -56.5 -2h-80.5h-352v90h651v-72l-440 -634q-27 -37 -46.5 -66t-33.5 -47q-16 -23 -31 -37v-6q16 0 41 2q23 0 55.5 1t81.5 1h393v-88h-694z" />
<glyph unicode="{" horiz-adv-x="804" d="M100 440v84h90q29 0 55.5 7.5t46 27t32 53t12.5 86.5v412q0 125 52 199.5t185 74.5q51 0 92.5 -8t88.5 -26l-23 -80q-29 14 -62.5 24.5t-80.5 10.5q-76 0 -116 -47.5t-40 -151.5v-418q0 -111 -41 -152.5t-110 -50.5v-6q70 -8 110.5 -51t40.5 -152v-417q0 -104 40 -151.5 t116 -47.5q47 0 80.5 10.5t62.5 24.5l23 -80q-47 -18 -88 -26.5t-93 -8.5q-66 0 -111.5 19.5t-73.5 55.5t-40 86t-12 114v411q0 53 -12.5 87t-32 53.5t-46 26.5t-55.5 7h-90z" />
<glyph unicode="|" horiz-adv-x="522" d="M213 -416v1786h94v-1786h-94z" />
<glyph unicode="}" horiz-adv-x="804" d="M51 -385l23 80q29 -14 62.5 -24.5t80.5 -10.5q76 0 116 47t40 152v417q0 109 41 152t110 51v6q-70 8 -110.5 50.5t-40.5 152.5v418q0 104 -40 151.5t-116 47.5q-47 0 -81 -10.5t-62 -24.5l-23 80q47 18 88 26t92 8q66 0 112 -19t73.5 -55t40 -86t12.5 -114v-412 q0 -53 11.5 -86.5t31.5 -53t47 -27t55 -7.5h88v-84h-88q-29 0 -55.5 -7t-46.5 -26.5t-31.5 -53.5t-11.5 -87v-411q0 -127 -53.5 -201t-184.5 -74q-51 0 -92 8.5t-88 26.5z" />
<glyph unicode="~" horiz-adv-x="892" d="M158 509q2 40 19.5 68.5t48 46t71.5 17.5q53 0 89 -19.5t77 -46.5q37 -27 63.5 -42t57.5 -15q41 0 59.5 28.5t7.5 96.5h72q33 -94 -5 -156.5t-128 -62.5q-45 0 -80 19.5t-72 41.5q-39 25 -67.5 42.5t-63.5 17.5q-41 0 -59.5 -28t-5.5 -93h-70q-16 45 -14 85z" />
<glyph unicode="&#xa1;" horiz-adv-x="460" d="M150 879q0 35 22.5 58.5t56.5 23.5q35 0 58.5 -24t23.5 -58q0 -35 -23.5 -57.5t-58.5 -22.5t-57 22.5t-22 57.5zM162 -254l33 866h71l31 -866h-135z" />
<glyph unicode="&#xa2;" horiz-adv-x="1001" d="M102 571q0 236 110 366t294 146v174h74v-172q131 -4 216 -62t134 -173l-96 -51q-70 184 -254 196v-843q96 4 159.5 47t108.5 131l82 -56q-111 -203 -350 -211v-198h-74v198q-90 6 -164 42t-127 98.5t-83 155t-30 212.5zM209 578q0 -184 76.5 -295t220.5 -127v837 q-147 -16 -222 -126.5t-75 -288.5z" />
<glyph unicode="&#xa3;" horiz-adv-x="907" d="M68 0v92h55q31 0 58.5 16.5t50 47t36 75.5t13.5 101q0 51 -13.5 105.5t-31.5 113.5h-160v74h137q-20 66 -35.5 133t-15.5 137q0 88 27.5 150.5t74.5 102.5t107.5 58.5t126.5 18.5q131 0 212 -61.5t103 -198.5l-98 -23q-16 98 -67.5 145.5t-153.5 47.5q-98 0 -161 -58.5 t-63 -181.5q0 -70 15.5 -137.5t36.5 -132.5h319v-74h-299q16 -55 28.5 -109.5t12.5 -105.5q0 -113 -45 -172.5t-94 -75.5h397q66 0 112 21.5t62 91.5l84 -45q-23 -84 -83 -120t-163 -36h-585z" />
<glyph unicode="&#xa5;" horiz-adv-x="983" d="M41 1206h121l241 -442q29 -51 46.5 -87t27.5 -59q12 -27 21 -45h6q6 18 18 45q10 23 27.5 59t44.5 87l233 442h115l-278 -514h200v-74h-239l-72 -131h311v-73h-311v-414h-109v414h-303v73h299l-71 131h-228v74h187z" />
<glyph unicode="&#xa7;" horiz-adv-x="884" d="M109 31l108 14q16 -98 78.5 -139t163.5 -41q43 0 82 9t69.5 29.5t48 52.5t17.5 75q0 74 -43 118t-131 68l-137 37q-117 33 -177.5 91t-60.5 161q0 84 46 139t118 82q-76 33 -118 90t-42 144q0 72 26.5 122t70.5 81.5t99.5 46t112.5 14.5q145 0 228.5 -56.5t101.5 -191.5 l-104 -12q-12 92 -68.5 134t-155.5 42q-94 0 -152.5 -42t-58.5 -130q0 -72 40 -112t124 -64l129 -41q53 -16 98.5 -36t79 -49.5t53 -71.5t19.5 -101q0 -80 -44 -137.5t-118 -80.5q68 -25 115 -86t47 -149q0 -70 -26.5 -119t-71.5 -80.5t-104.5 -46t-125.5 -14.5 q-141 0 -229 59.5t-108 190.5zM227 520q0 -82 50.5 -121t148.5 -67q6 -2 23.5 -6t37 -9.5t38 -9.5t24.5 -6q47 18 87 64t40 114q0 82 -56.5 122t-148.5 69l-115 32q-53 -23 -91 -68.5t-38 -113.5z" />
<glyph unicode="&#xa8;" horiz-adv-x="854" d="M172 1219q0 33 22.5 55t55.5 22q35 0 56.5 -22.5t21.5 -54.5q0 -33 -21.5 -55.5t-56.5 -22.5q-33 0 -55.5 22.5t-22.5 55.5zM524 1217q0 35 22.5 56t55.5 21t55.5 -21.5t22.5 -55.5q0 -31 -22.5 -53.5t-55.5 -22.5t-55.5 22.5t-22.5 53.5z" />
<glyph unicode="&#xa9;" horiz-adv-x="1445" d="M100 602q0 135 49.5 250t133.5 198t197.5 129t242.5 46t241.5 -46t197.5 -129t134.5 -198t49.5 -250t-49.5 -249.5t-134.5 -196.5t-197.5 -128t-241.5 -46t-242.5 46t-197.5 128t-133.5 196.5t-49.5 249.5zM154 602q0 -125 45 -230.5t121.5 -181t181 -117.5t221.5 -42 q119 0 222.5 42t181 117.5t122.5 181t45 230.5t-45 230.5t-122.5 181.5t-181 119t-222.5 43q-117 0 -221.5 -43t-181 -119t-121.5 -181.5t-45 -230.5zM369 604q0 193 101 295t263 102q115 0 185.5 -45t111.5 -137l-84 -47q-57 147 -215 148q-129 0 -197.5 -82t-68.5 -234 q0 -150 68.5 -231.5t201.5 -81.5q82 0 133.5 31.5t92.5 99.5l69 -51q-49 -82 -121.5 -122t-181.5 -40q-78 0 -143.5 24.5t-113.5 73.5t-74.5 124t-26.5 173z" />
<glyph unicode="&#xaa;" horiz-adv-x="694" d="M72 745q0 96 74.5 149.5t232.5 53.5q16 0 32.5 -1t34.5 -3v72q0 78 -35.5 108.5t-97.5 30.5q-53 0 -91 -26.5t-42 -86.5l-86 11q4 49 24.5 83.5t52.5 55t70 30t78 9.5q43 0 83 -10.5t71 -33t48.5 -59t17.5 -92.5v-309q0 -39 12 -54.5t35 -15.5q12 0 21 4.5t18 8.5v-72 q-10 -8 -27.5 -11t-36.5 -3q-47 0 -76.5 23.5t-35.5 82.5q-20 -59 -72.5 -85.5t-114.5 -26.5q-86 0 -138 44t-52 123zM166 756q0 -51 30.5 -81t92.5 -30q59 0 108 36t49 105v99q-12 2 -24 3t-27 1q-115 0 -172 -31t-57 -102z" />
<glyph unicode="&#xab;" horiz-adv-x="894" d="M88 477l358 422l64 -61l-221 -256q-29 -35 -49.5 -54.5t-30.5 -29.5q-14 -12 -21 -17v-8q8 -6 23 -18q12 -10 30.5 -31t47.5 -55l221 -260l-64 -54zM385 477l358 422l64 -61l-221 -256q-31 -35 -50.5 -54.5t-31.5 -29.5q-14 -12 -21 -17v-8q8 -6 23 -18q23 -20 80 -86 l219 -260l-62 -54z" />
<glyph unicode="&#xad;" horiz-adv-x="763" d="M152 500v90h458v-90h-458z" />
<glyph unicode="&#xae;" horiz-adv-x="1445" d="M100 602q0 135 49.5 250t133.5 198t197.5 129t242.5 46t241.5 -46t197.5 -129t134.5 -198t49.5 -250t-49.5 -249.5t-134.5 -196.5t-197.5 -128t-241.5 -46t-242.5 46t-197.5 128t-133.5 196.5t-49.5 249.5zM156 602q0 -125 45 -230.5t121.5 -181t180 -117.5t220.5 -42 q119 0 222.5 42t180 117.5t121.5 181t45 230.5t-45 230.5t-121.5 181.5t-180 119t-222.5 43q-117 0 -220.5 -43t-180 -119t-121.5 -181.5t-45 -230.5zM479 246v739h266q121 0 188.5 -52t67.5 -163q0 -92 -55 -137t-141 -49q59 -8 98 -35t55 -90l31 -121q14 -55 45 -92h-98 q-14 16 -22.5 34.5t-16.5 47.5l-27 112q-14 59 -57 86t-115 27h-127v-307h-92zM571 625h150q104 0 147 37.5t43 105.5q0 141 -180 141h-160v-284z" />
<glyph unicode="&#xaf;" horiz-adv-x="837" d="M190 1155v88h455v-88h-455z" />
<glyph unicode="&#xb0;" horiz-adv-x="534" d="M82 1044q0 78 51 132.5t133 54.5t134.5 -54.5t52.5 -132.5t-52.5 -131t-134.5 -53t-133 53t-51 131zM150 1044q0 -53 31.5 -87.5t84.5 -34.5t85 34.5t32 87.5t-32 89t-85 36t-84.5 -36t-31.5 -89z" />
<glyph unicode="&#xb1;" horiz-adv-x="1038" d="M100 113v71h836v-71h-836zM100 598v72h379v295h72v-295h385v-72h-385v-322h-72v322h-379z" />
<glyph unicode="&#xb2;" horiz-adv-x="593" d="M45 483v70q74 51 142.5 102.5t120.5 104.5t84 110.5t32 118.5q0 74 -40 113t-108 39q-78 0 -113.5 -49.5t-35.5 -108.5l-78 31q0 39 15.5 75.5t46 65.5t74.5 47.5t104 18.5q92 0 159.5 -55.5t67.5 -170.5q0 -78 -39 -145.5t-94 -122.5t-116.5 -97t-106.5 -67v-6h389v-74 h-504z" />
<glyph unicode="&#xb3;" horiz-adv-x="593" d="M23 639l81 29q12 -59 58.5 -93t116.5 -34t113.5 33.5t43.5 99.5q0 70 -55 108.5t-184 40.5v66q109 4 163 38t54 101q0 59 -38 89t-97 30q-57 0 -96.5 -30t-51.5 -89l-80 27q16 72 73.5 119t158.5 47q45 0 85 -10.5t69.5 -33t47 -57.5t17.5 -82q0 -72 -44 -120t-136 -56 v-6q98 -6 151 -55t53 -133q0 -94 -70.5 -145.5t-176.5 -51.5q-115 0 -179.5 48t-76.5 120z" />
<glyph unicode="&#xb4;" horiz-adv-x="641" d="M178 1092l146 278h143l-203 -278h-86z" />
<glyph unicode="&#xb6;" horiz-adv-x="950" d="M70 831q0 188 126 281.5t361 93.5h305v-86h-162v-1200q0 -131 -62.5 -192.5t-172.5 -61.5q-106 0 -199 60l39 96q39 -35 78 -49.5t80 -14.5q59 0 94 34t35 114v567h-82q-215 0 -327.5 90t-112.5 268z" />
<glyph unicode="&#xb7;" horiz-adv-x="520" d="M172 545q0 37 25.5 61.5t62.5 24.5t61.5 -24.5t24.5 -61.5q0 -39 -24.5 -63.5t-61.5 -24.5t-62.5 24.5t-25.5 63.5z" />
<glyph unicode="&#xb9;" horiz-adv-x="587" d="M53 1081v76l318 53v-655h194v-72h-506v72h220v561z" />
<glyph unicode="&#xba;" horiz-adv-x="731" d="M88 905q0 162 74 244t203 82t203.5 -82t74.5 -244q0 -160 -74.5 -243.5t-203.5 -83.5t-203 83.5t-74 243.5zM182 907q0 -260 183 -260q182 0 182 260q0 252 -182 252t-183 -252z" />
<glyph unicode="&#xbb;" horiz-adv-x="894" d="M90 109l221 260q29 35 47.5 55t30.5 31q14 12 23 18v8q-8 4 -21 17q-12 10 -31.5 29.5t-48.5 54.5l-221 256l64 61l358 -422l-358 -422zM385 838l64 61l358 -422l-358 -422l-62 54l219 260q57 66 80 86q14 12 23 18v8q-8 4 -23 17q-12 10 -31.5 29.5t-48.5 54.5z" />
<glyph unicode="&#xbc;" horiz-adv-x="1599" d="M78 1081v76l318 53v-655h194v-72h-506v72h220v561zM465 0l663 1208h84l-663 -1208h-84zM955 195v67l370 461h93v-459h122v-69h-122v-195h-88v195h-375zM1035 258q10 0 24 2q12 0 30.5 1t45.5 1h197v256v50.5t2 37.5q2 18 4 35h-6q-8 -12 -17 -30q-10 -16 -22.5 -37 t-32.5 -45l-141 -176q-18 -23 -35 -40.5t-27 -27.5q-12 -12 -22 -21v-6z" />
<glyph unicode="&#xbd;" horiz-adv-x="1638" d="M78 1081v76l318 53v-655h194v-72h-506v72h220v561zM465 0l663 1208h84l-663 -1208h-84zM1034 0v70q74 51 142.5 102t120.5 104.5t84 111t32 118.5q0 74 -40 113t-108 39q-78 0 -113.5 -49.5t-35.5 -108.5l-78 31q0 39 15.5 75.5t46 65.5t74.5 47.5t104 18.5 q92 0 159.5 -55.5t67.5 -170.5q0 -78 -39 -145.5t-94 -122.5t-116.5 -97t-106.5 -67v-6h389v-74h-504z" />
<glyph unicode="&#xbe;" horiz-adv-x="1554" d="M58 639l81 29q12 -59 58.5 -93t116.5 -34t113.5 33.5t43.5 99.5q0 70 -55 108.5t-184 40.5v66q109 4 163 37.5t54 101.5q0 59 -38 89t-97 30q-57 0 -96.5 -30t-51.5 -89l-80 27q16 72 73.5 119t158.5 47q45 0 85 -10.5t69.5 -33t47 -57.5t17.5 -82q0 -72 -44 -120 t-136 -56v-6q98 -6 151 -55t53 -133q0 -94 -70.5 -145.5t-176.5 -51.5q-115 0 -179.5 48t-76.5 120zM422 0l663 1208h84l-663 -1208h-84zM912 195v67l370 461h93v-459h122v-69h-122v-195h-88v195h-375zM992 258q10 0 24 2q12 0 30.5 1t45.5 1h197v256v50.5t2 37.5q2 18 4 35 h-6q-8 -12 -17 -30q-10 -16 -22.5 -37t-32.5 -45l-141 -176q-18 -23 -35 -40.5t-27 -27.5q-12 -12 -22 -21v-6z" />
<glyph unicode="&#xbf;" horiz-adv-x="792" d="M49 74q0 92 31 159.5t82 112.5t116.5 67.5t135.5 22.5v195h98v-262h-55q-63 0 -118.5 -16.5t-95.5 -52.5t-63.5 -90t-23.5 -130q0 -133 72.5 -198.5t191.5 -65.5q104 0 170.5 54t85.5 161l92 -33q-25 -117 -112 -194.5t-242 -77.5q-170 0 -267.5 96t-97.5 252zM381 877 q0 35 23.5 58t58.5 23t58.5 -23t23.5 -58t-23.5 -57.5t-58.5 -22.5t-58.5 22.5t-23.5 57.5z" />
<glyph unicode="&#xc0;" horiz-adv-x="1095" d="M20 0l459 1206h142l454 -1206h-114l-144 383h-541l-143 -383h-113zM309 475h473l-133 359q-27 70 -45 124t-31 95q-14 45 -22 82h-8q-8 -35 -23 -80q-12 -39 -30.5 -94.5t-45.5 -124.5zM326 1563h143l131 -248h-92z" />
<glyph unicode="&#xc1;" horiz-adv-x="1095" d="M20 0l459 1206h142l454 -1206h-114l-144 383h-541l-143 -383h-113zM309 475h473l-133 359q-27 70 -45 124t-31 95q-14 45 -22 82h-8q-8 -35 -23 -80q-12 -39 -30.5 -94.5t-45.5 -124.5zM498 1315l131 248h143l-182 -248h-92z" />
<glyph unicode="&#xc2;" horiz-adv-x="1095" d="M20 0l459 1206h142l454 -1206h-114l-144 383h-541l-143 -383h-113zM276 1315l236 256h63l236 -256h-119l-86 96q-16 16 -26.5 31.5t-18.5 25.5q-8 12 -15 23h-4q-6 -10 -14 -23q-8 -10 -18.5 -25.5t-26.5 -31.5l-88 -96h-119zM309 475h473l-133 359q-27 70 -45 124 t-31 95q-14 45 -22 82h-8q-8 -35 -23 -80q-12 -39 -30.5 -94.5t-45.5 -124.5z" />
<glyph unicode="&#xc3;" horiz-adv-x="1095" d="M20 0l459 1206h142l454 -1206h-114l-144 383h-541l-143 -383h-113zM262.5 1409q1.5 39 19 67.5t49.5 46t73 17.5q51 0 85.5 -18.5t73.5 -44.5q37 -29 61.5 -43.5t55.5 -14.5q39 0 58.5 29t9.5 96h71q31 -94 -6 -156.5t-127 -62.5q-47 0 -79.5 19.5t-67.5 41.5 q-39 27 -65.5 43.5t-59.5 16.5q-41 0 -61.5 -27.5t-8.5 -93.5h-67q-16 45 -14.5 84zM309 475h473l-133 359q-27 70 -45 124t-31 95q-14 45 -22 82h-8q-8 -35 -23 -80q-12 -39 -30.5 -94.5t-45.5 -124.5z" />
<glyph unicode="&#xc4;" horiz-adv-x="1095" d="M20 0l459 1206h142l454 -1206h-114l-144 383h-541l-143 -383h-113zM293 1413q0 33 22.5 55.5t55.5 22.5q35 0 56.5 -22.5t21.5 -55.5t-21.5 -55.5t-56.5 -22.5q-33 0 -55.5 22.5t-22.5 55.5zM309 475h473l-133 359q-27 70 -45 124t-31 95q-14 45 -22 82h-8 q-8 -35 -23 -80q-12 -39 -30.5 -94.5t-45.5 -124.5zM645 1411q0 35 22.5 56.5t55.5 21.5t55.5 -21.5t22.5 -56.5q0 -33 -22.5 -55.5t-55.5 -22.5t-55.5 22.5t-22.5 55.5z" />
<glyph unicode="&#xc5;" horiz-adv-x="1095" d="M20 0l459 1206h142l454 -1206h-114l-144 383h-541l-143 -383h-113zM309 475h473l-133 359q-27 70 -45 124t-31 95q-14 45 -22 82h-8q-8 -35 -23 -80q-12 -39 -30.5 -94.5t-45.5 -124.5zM362 1466q0 70 49 121t135 51t134.5 -51t48.5 -121q0 -76 -48.5 -127t-134.5 -51 q-88 0 -136 51.5t-48 126.5zM430 1462q0 -49 29.5 -80.5t86.5 -31.5t87 31.5t30 80.5q0 53 -31 87t-86 34t-85.5 -33.5t-30.5 -87.5z" />
<glyph unicode="&#xc6;" horiz-adv-x="1638" d="M20 0l771 1206h741v-94h-580v-461h516v-94h-516v-463h580v-94h-686v387h-465l-244 -387h-117zM436 477h410v342q-2 76 0 133.5t6 96.5q4 45 6 77h-6z" />
<glyph unicode="&#xc7;" horiz-adv-x="1130" d="M98 600q0 152 40 268.5t110.5 195.5t170 120t220.5 41q315 0 430 -287l-96 -47q-43 121 -130 181.5t-210 60.5q-203 0 -312.5 -142.5t-109.5 -390.5q0 -246 104.5 -384t309.5 -138q133 0 220 53t146 168l78 -61q-68 -125 -169 -188.5t-253 -67.5l-12 -76q88 -8 137 -50 t49 -114q0 -84 -55 -123t-133 -39q-66 0 -110 23.5t-70 58.5l36 68q29 -39 63 -59.5t81 -20.5q45 0 71.5 21.5t26.5 70.5q0 100 -164 106l19 134q-111 6 -201 49t-153.5 120.5t-98.5 190.5t-35 258z" />
<glyph unicode="&#xc8;" horiz-adv-x="970" d="M178 0v1206h686v-94h-577v-461h514v-94h-514v-463h577v-94h-686zM297 1563h143l131 -248h-92z" />
<glyph unicode="&#xc9;" horiz-adv-x="970" d="M178 0v1206h686v-94h-577v-461h514v-94h-514v-463h577v-94h-686zM469 1315l131 248h143l-182 -248h-92z" />
<glyph unicode="&#xca;" horiz-adv-x="970" d="M178 0v1206h686v-94h-577v-461h514v-94h-514v-463h577v-94h-686zM252 1315l236 256h63l236 -256h-119l-86 96q-16 16 -26.5 31.5t-18.5 25.5q-8 12 -15 23h-4q-6 -10 -14 -23q-8 -10 -18.5 -25.5t-26.5 -31.5l-88 -96h-119z" />
<glyph unicode="&#xcb;" horiz-adv-x="970" d="M178 0v1206h686v-94h-577v-461h514v-94h-514v-463h577v-94h-686zM266 1413q0 33 22.5 55.5t55.5 22.5q35 0 56.5 -22.5t21.5 -55.5t-21.5 -55.5t-56.5 -22.5q-33 0 -55.5 22.5t-22.5 55.5zM618 1411q0 35 22.5 56.5t55.5 21.5t55.5 -21.5t22.5 -56.5q0 -33 -22.5 -55.5 t-55.5 -22.5t-55.5 22.5t-22.5 55.5z" />
<glyph unicode="&#xcc;" horiz-adv-x="464" d="M8 1563h143l131 -248h-92zM178 0v1206h109v-1206h-109z" />
<glyph unicode="&#xcd;" horiz-adv-x="464" d="M178 0v1206h109v-1206h-109zM180 1315l131 248h143l-182 -248h-92z" />
<glyph unicode="&#xce;" horiz-adv-x="464" d="M-37 1315l236 256h63l236 -256h-119l-86 96q-16 16 -26.5 31.5t-18.5 25.5q-8 12 -15 23h-4q-6 -10 -14 -23q-8 -10 -18.5 -25.5t-26.5 -31.5l-88 -96h-119zM178 0v1206h109v-1206h-109z" />
<glyph unicode="&#xcf;" horiz-adv-x="464" d="M-21 1413q0 33 22.5 55.5t55.5 22.5q35 0 56.5 -22.5t21.5 -55.5t-21.5 -55.5t-56.5 -22.5q-33 0 -55.5 22.5t-22.5 55.5zM178 0v1206h109v-1206h-109zM331 1411q0 35 22.5 56.5t55.5 21.5t55.5 -21.5t22.5 -56.5q0 -33 -22.5 -55.5t-55.5 -22.5t-55.5 22.5t-22.5 55.5z " />
<glyph unicode="&#xd0;" horiz-adv-x="1198" d="M59 557v94h125v555h334q127 0 233.5 -32.5t183.5 -103.5t120 -182.5t43 -271.5q0 -168 -47 -284.5t-127 -190t-185.5 -107.5t-222.5 -34h-332v557h-125zM293 92h213q219 0 349 129t130 391q0 131 -32.5 226.5t-94 157t-147.5 90t-193 28.5h-225v-463h280v-94h-280v-465z " />
<glyph unicode="&#xd1;" horiz-adv-x="1288" d="M178 0v1206h117l573 -839q29 -43 53.5 -83t43.5 -71q23 -37 39 -70h6q-2 35 -4 76q-2 35 -2 81v97v809h106v-1206h-115l-575 840q-29 41 -53.5 79.5t-42.5 71.5q-23 37 -39 72h-9q2 -35 5 -76q2 -35 3 -81t1 -97v-809h-107zM358.5 1409q1.5 39 19 67.5t49.5 46t73 17.5 q51 0 85.5 -18.5t73.5 -44.5q37 -29 61.5 -43.5t55.5 -14.5q39 0 58.5 29t9.5 96h71q31 -94 -6 -156.5t-127 -62.5q-47 0 -79.5 19.5t-67.5 41.5q-39 27 -65.5 43.5t-59.5 16.5q-41 0 -61.5 -27.5t-8.5 -93.5h-67q-16 45 -14.5 84z" />
<glyph unicode="&#xd2;" horiz-adv-x="1245" d="M98 602q0 150 37 265.5t105.5 195.5t165 121t217.5 41q119 0 216 -41t165.5 -121t105.5 -195.5t37 -265.5t-37 -265.5t-105.5 -194.5t-165.5 -119.5t-216 -40.5q-121 0 -217.5 40.5t-165 119.5t-105.5 195t-37 265zM211 602q0 -248 104.5 -387t307.5 -139t308 139 t105 387t-105 388t-308 140t-307.5 -140t-104.5 -388zM399 1563h143l131 -248h-92z" />
<glyph unicode="&#xd3;" horiz-adv-x="1245" d="M98 602q0 150 37 265.5t105.5 195.5t165 121t217.5 41q119 0 216 -41t165.5 -121t105.5 -195.5t37 -265.5t-37 -265.5t-105.5 -194.5t-165.5 -119.5t-216 -40.5q-121 0 -217.5 40.5t-165 119.5t-105.5 195t-37 265zM211 602q0 -248 104.5 -387t307.5 -139t308 139 t105 387t-105 388t-308 140t-307.5 -140t-104.5 -388zM571 1315l131 248h143l-182 -248h-92z" />
<glyph unicode="&#xd4;" horiz-adv-x="1245" d="M98 602q0 150 37 265.5t105.5 195.5t165 121t217.5 41q119 0 216 -41t165.5 -121t105.5 -195.5t37 -265.5t-37 -265.5t-105.5 -194.5t-165.5 -119.5t-216 -40.5q-121 0 -217.5 40.5t-165 119.5t-105.5 195t-37 265zM211 602q0 -248 104.5 -387t307.5 -139t308 139 t105 387t-105 388t-308 140t-307.5 -140t-104.5 -388zM354 1315l236 256h63l236 -256h-119l-86 96q-16 16 -26.5 31.5t-18.5 25.5q-8 12 -15 23h-4q-6 -10 -14 -23q-8 -10 -18.5 -25.5t-26.5 -31.5l-88 -96h-119z" />
<glyph unicode="&#xd5;" horiz-adv-x="1245" d="M98 602q0 150 37 265.5t105.5 195.5t165 121t217.5 41q119 0 216 -41t165.5 -121t105.5 -195.5t37 -265.5t-37 -265.5t-105.5 -194.5t-165.5 -119.5t-216 -40.5q-121 0 -217.5 40.5t-165 119.5t-105.5 195t-37 265zM211 602q0 -248 104.5 -387t307.5 -139t308 139 t105 387t-105 388t-308 140t-307.5 -140t-104.5 -388zM338.5 1409q1.5 39 19 67.5t49.5 46t73 17.5q51 0 85.5 -18.5t73.5 -44.5q37 -29 61.5 -43.5t55.5 -14.5q39 0 58.5 29t9.5 96h71q31 -94 -6 -156.5t-127 -62.5q-47 0 -79.5 19.5t-67.5 41.5q-39 27 -65.5 43.5 t-59.5 16.5q-41 0 -61.5 -27.5t-8.5 -93.5h-67q-16 45 -14.5 84z" />
<glyph unicode="&#xd6;" horiz-adv-x="1245" d="M98 602q0 150 37 265.5t105.5 195.5t165 121t217.5 41q119 0 216 -41t165.5 -121t105.5 -195.5t37 -265.5t-37 -265.5t-105.5 -194.5t-165.5 -119.5t-216 -40.5q-121 0 -217.5 40.5t-165 119.5t-105.5 195t-37 265zM211 602q0 -248 104.5 -387t307.5 -139t308 139 t105 387t-105 388t-308 140t-307.5 -140t-104.5 -388zM369 1413q0 33 22.5 55.5t55.5 22.5q35 0 56.5 -22.5t21.5 -55.5t-21.5 -55.5t-56.5 -22.5q-33 0 -55.5 22.5t-22.5 55.5zM721 1411q0 35 22.5 56.5t55.5 21.5t55.5 -21.5t22.5 -56.5q0 -33 -22.5 -55.5t-55.5 -22.5 t-55.5 22.5t-22.5 55.5z" />
<glyph unicode="&#xd7;" horiz-adv-x="919" d="M115 219l291 291l-287 285l49 51l289 -287l295 293l49 -49l-295 -293l299 -297l-49 -51l-299 297l-293 -291z" />
<glyph unicode="&#xd8;" horiz-adv-x="1245" d="M76 35l133 151q-111 158 -111 416q0 150 37 265.5t105.5 195.5t165 121t217.5 41q223 0 362 -140l119 136l63 -58l-127 -149q106 -156 107 -412q0 -150 -37 -265.5t-105.5 -194.5t-166 -119.5t-215.5 -40.5q-227 0 -363 139l-123 -141zM213 602q0 -199 72 -330l630 732 q-108 126 -292 126q-201 0 -305.5 -141t-104.5 -387zM332 199q104 -123 291 -123q203 0 306 139t103 387q0 199 -71 326z" />
<glyph unicode="&#xd9;" horiz-adv-x="1175" d="M139 412v794h109v-772q0 -98 26.5 -166.5t72.5 -112.5t107.5 -63.5t133.5 -19.5q70 0 132 19.5t109.5 62.5t74 111.5t26.5 164.5v776h106v-794q0 -117 -36.5 -199t-99 -133t-143.5 -74.5t-169 -23.5t-169 23.5t-143.5 74.5t-99.5 133t-37 199zM365 1563h143l131 -248h-92 z" />
<glyph unicode="&#xda;" horiz-adv-x="1175" d="M139 412v794h109v-772q0 -98 26.5 -166.5t72.5 -112.5t107.5 -63.5t133.5 -19.5q70 0 132 19.5t109.5 62.5t74 111.5t26.5 164.5v776h106v-794q0 -117 -36.5 -199t-99 -133t-143.5 -74.5t-169 -23.5t-169 23.5t-143.5 74.5t-99.5 133t-37 199zM537 1315l131 248h143 l-182 -248h-92z" />
<glyph unicode="&#xdb;" horiz-adv-x="1175" d="M139 412v794h109v-772q0 -98 26.5 -166.5t72.5 -112.5t107.5 -63.5t133.5 -19.5q70 0 132 19.5t109.5 62.5t74 111.5t26.5 164.5v776h106v-794q0 -117 -36.5 -199t-99 -133t-143.5 -74.5t-169 -23.5t-169 23.5t-143.5 74.5t-99.5 133t-37 199zM319 1315l236 256h63 l236 -256h-119l-86 96q-16 16 -26.5 31.5t-18.5 25.5q-8 12 -15 23h-4q-6 -10 -14 -23q-8 -10 -18.5 -25.5t-26.5 -31.5l-88 -96h-119z" />
<glyph unicode="&#xdc;" horiz-adv-x="1175" d="M139 412v794h109v-772q0 -98 26.5 -166.5t72.5 -112.5t107.5 -63.5t133.5 -19.5q70 0 132 19.5t109.5 62.5t74 111.5t26.5 164.5v776h106v-794q0 -117 -36.5 -199t-99 -133t-143.5 -74.5t-169 -23.5t-169 23.5t-143.5 74.5t-99.5 133t-37 199zM334 1413q0 33 22.5 55.5 t55.5 22.5q35 0 56.5 -22.5t21.5 -55.5t-21.5 -55.5t-56.5 -22.5q-33 0 -55.5 22.5t-22.5 55.5zM686 1411q0 35 22.5 56.5t55.5 21.5t55.5 -21.5t22.5 -56.5q0 -33 -22.5 -55.5t-55.5 -22.5t-55.5 22.5t-22.5 55.5z" />
<glyph unicode="&#xdd;" horiz-adv-x="960" d="M29 1206h123l241 -442q29 -51 46.5 -87t27.5 -59l20 -45h7q6 18 18 45q10 23 26.5 59t45.5 87l233 442h113l-389 -723v-483h-107v483zM428 1315l131 248h143l-182 -248h-92z" />
<glyph unicode="&#xde;" horiz-adv-x="972" d="M178 0v1206h109v-227h211q217 0 315 -90t98 -258q0 -184 -102 -277.5t-303 -93.5h-219v-260h-109zM287 350h209q162 0 232.5 67.5t70.5 207.5q0 264 -305 264h-207v-539z" />
<glyph unicode="&#xdf;" horiz-adv-x="1060" d="M158 0v942q0 223 102 331.5t283 108.5q174 0 260 -87t86 -222q0 -72 -21.5 -124t-57.5 -88t-83 -57.5t-100 -27.5v-6q72 -4 135 -32.5t109.5 -78t73 -118t26.5 -154.5q0 -193 -80 -299t-252 -106q-98 0 -169 39.5t-108 119.5l70 62q59 -139 207 -140q113 0 169 80t56 246 q0 154 -93 245t-263 91h-88v86h72q129 0 209.5 60.5t80.5 187.5q0 111 -59 175t-182 64q-125 0 -202 -84t-77 -282v-932h-104z" />
<glyph unicode="&#xe0;" horiz-adv-x="927" d="M82 236q0 145 111.5 223t341.5 78q29 0 57.5 -1t60.5 -6v132q0 121 -62.5 168t-158.5 47q-92 0 -151.5 -43t-69.5 -148l-96 14q6 76 35.5 126.5t74.5 81t101.5 44t115.5 13.5q63 0 121 -14.5t101 -48.5t68.5 -90t25.5 -138v-477q0 -66 19.5 -92.5t56.5 -26.5q27 0 43 8 v-86q-12 -4 -27.5 -6t-36.5 -2q-72 0 -110.5 39t-43.5 129q-35 -92 -114.5 -135t-175.5 -43q-131 0 -209 66.5t-78 187.5zM186 246q0 -82 51.5 -131t151.5 -49q49 0 96 15t85 44t60.5 73t22.5 99v156q-25 4 -47 5t-51 1q-180 0 -274.5 -51.5t-94.5 -161.5zM211 1370h145 l146 -278h-88z" />
<glyph unicode="&#xe1;" horiz-adv-x="927" d="M82 236q0 145 111.5 223t341.5 78q29 0 57.5 -1t60.5 -6v132q0 121 -62.5 168t-158.5 47q-92 0 -151.5 -43t-69.5 -148l-96 14q6 76 35.5 126.5t74.5 81t101.5 44t115.5 13.5q63 0 121 -14.5t101 -48.5t68.5 -90t25.5 -138v-477q0 -66 19.5 -92.5t56.5 -26.5q27 0 43 8 v-86q-12 -4 -27.5 -6t-36.5 -2q-72 0 -110.5 39t-43.5 129q-35 -92 -114.5 -135t-175.5 -43q-131 0 -209 66.5t-78 187.5zM186 246q0 -82 51.5 -131t151.5 -49q49 0 96 15t85 44t60.5 73t22.5 99v156q-25 4 -47 5t-51 1q-180 0 -274.5 -51.5t-94.5 -161.5zM395 1092l146 278 h143l-203 -278h-86z" />
<glyph unicode="&#xe2;" horiz-adv-x="927" d="M82 236q0 145 111.5 223t341.5 78q29 0 57.5 -1t60.5 -6v132q0 121 -62.5 168t-158.5 47q-92 0 -151.5 -43t-69.5 -148l-96 14q6 76 35.5 126.5t74.5 81t101.5 44t115.5 13.5q63 0 121 -14.5t101 -48.5t68.5 -90t25.5 -138v-477q0 -66 19.5 -92.5t56.5 -26.5q27 0 43 8 v-86q-12 -4 -27.5 -6t-36.5 -2q-72 0 -110.5 39t-43.5 129q-35 -92 -114.5 -135t-175.5 -43q-131 0 -209 66.5t-78 187.5zM180 1092l238 278h57l238 -278h-113l-90 108q-16 18 -26.5 33.5t-18.5 26.5q-8 12 -15 24h-8q-6 -12 -14 -24q-8 -10 -18.5 -25.5t-24.5 -34.5 l-92 -108h-113zM186 246q0 -82 51.5 -131t151.5 -49q49 0 96 15t85 44t60.5 73t22.5 99v156q-25 4 -47 5t-51 1q-180 0 -274.5 -51.5t-94.5 -161.5z" />
<glyph unicode="&#xe3;" horiz-adv-x="927" d="M82 236q0 145 111.5 223t341.5 78q29 0 57.5 -1t60.5 -6v132q0 121 -62.5 168t-158.5 47q-92 0 -151.5 -43t-69.5 -148l-96 14q6 76 35.5 126.5t74.5 81t101.5 44t115.5 13.5q63 0 121 -14.5t101 -48.5t68.5 -90t25.5 -138v-477q0 -66 19.5 -92.5t56.5 -26.5q27 0 43 8 v-86q-12 -4 -27.5 -6t-36.5 -2q-72 0 -110.5 39t-43.5 129q-35 -92 -114.5 -135t-175.5 -43q-131 0 -209 66.5t-78 187.5zM164.5 1186q1.5 39 19 67.5t49.5 45t73 16.5q51 0 85.5 -19.5t73.5 -46.5q37 -27 61.5 -41t55.5 -14q39 0 58.5 28.5t9.5 96.5h71q31 -96 -6 -155.5 t-127 -59.5q-47 0 -79.5 18.5t-67.5 40.5q-39 27 -65.5 43.5t-59.5 16.5q-41 0 -61.5 -28t-8.5 -93h-67q-16 45 -14.5 84zM186 246q0 -82 51.5 -131t151.5 -49q49 0 96 15t85 44t60.5 73t22.5 99v156q-25 4 -47 5t-51 1q-180 0 -274.5 -51.5t-94.5 -161.5z" />
<glyph unicode="&#xe4;" horiz-adv-x="927" d="M82 236q0 145 111.5 223t341.5 78q29 0 57.5 -1t60.5 -6v132q0 121 -62.5 168t-158.5 47q-92 0 -151.5 -43t-69.5 -148l-96 14q6 76 35.5 126.5t74.5 81t101.5 44t115.5 13.5q63 0 121 -14.5t101 -48.5t68.5 -90t25.5 -138v-477q0 -66 19.5 -92.5t56.5 -26.5q27 0 43 8 v-86q-12 -4 -27.5 -6t-36.5 -2q-72 0 -110.5 39t-43.5 129q-35 -92 -114.5 -135t-175.5 -43q-131 0 -209 66.5t-78 187.5zM186 246q0 -82 51.5 -131t151.5 -49q49 0 96 15t85 44t60.5 73t22.5 99v156q-25 4 -47 5t-51 1q-180 0 -274.5 -51.5t-94.5 -161.5zM195 1219 q0 33 22.5 55t55.5 22q35 0 56.5 -22.5t21.5 -54.5q0 -33 -21.5 -55.5t-56.5 -22.5q-33 0 -55.5 22.5t-22.5 55.5zM547 1217q0 35 22.5 56t55.5 21t55.5 -21.5t22.5 -55.5q0 -31 -22.5 -53.5t-55.5 -22.5t-55.5 22.5t-22.5 53.5z" />
<glyph unicode="&#xe5;" horiz-adv-x="927" d="M82 236q0 145 111.5 223t341.5 78q29 0 57.5 -1t60.5 -6v132q0 121 -62.5 168t-158.5 47q-92 0 -151.5 -43t-69.5 -148l-96 14q6 76 35.5 126.5t74.5 81t101.5 44t115.5 13.5q63 0 121 -14.5t101 -48.5t68.5 -90t25.5 -138v-477q0 -66 19.5 -92.5t56.5 -26.5q27 0 43 8 v-86q-12 -4 -27.5 -6t-36.5 -2q-72 0 -110.5 39t-43.5 129q-35 -92 -114.5 -135t-175.5 -43q-131 0 -209 66.5t-78 187.5zM186 246q0 -82 51.5 -131t151.5 -49q49 0 96 15t85 44t60.5 73t22.5 99v156q-25 4 -47 5t-51 1q-180 0 -274.5 -51.5t-94.5 -161.5zM266 1255 q0 72 49 122t135 50t134.5 -50t48.5 -122q0 -74 -48.5 -125t-134.5 -51q-88 0 -136 51.5t-48 124.5zM334 1253q0 -49 29.5 -81.5t86.5 -32.5t87 32.5t30 81.5q0 51 -31 85t-86 34t-85.5 -33.5t-30.5 -85.5z" />
<glyph unicode="&#xe6;" horiz-adv-x="1486" d="M82 240q0 162 138 235.5t425 77.5q6 70 25 127q-10 109 -72.5 153t-155.5 44q-92 0 -156.5 -43t-74.5 -148l-96 14q6 76 35.5 126.5t74.5 81t101.5 44t115.5 13.5q100 0 176 -38t109 -130q51 82 132 125t188 43q86 0 150.5 -29t108.5 -79t65.5 -118.5t21.5 -150.5 q0 -35 -4.5 -67t-8.5 -54h-639q0 -193 82.5 -297t225.5 -104q102 0 162.5 44t86.5 142l93 -21q-27 -135 -120 -192t-229 -57q-231 0 -335 186q-35 -82 -123 -134t-211 -52q-135 0 -213 65.5t-78 192.5zM186 244q0 -78 50.5 -128t146.5 -50q98 0 177 50t108 150 q-23 76 -27 183v18q-223 -2 -339 -50t-116 -173zM745 553h543q2 14 2 26.5v28.5q0 57 -16.5 106.5t-48 86.5t-77.5 57.5t-108 20.5q-133 0 -206.5 -86t-88.5 -240z" />
<glyph unicode="&#xe7;" horiz-adv-x="915" d="M94 469q0 238 107.5 367t298.5 129q152 0 235.5 -76t95.5 -225l-96 -15q-29 225 -241 225q-147 0 -223 -109.5t-76 -297.5q0 -186 79.5 -292.5t221.5 -106.5q209 0 258 194l88 -18q-23 -133 -113 -194.5t-215 -67.5l-10 -76q88 -8 137 -50t49 -114q0 -84 -55 -123 t-135 -39q-63 0 -107.5 23.5t-73.5 58.5l39 68q29 -39 62 -59.5t80 -20.5q45 0 72.5 21.5t27.5 70.5q0 100 -164 106l17 136q-166 10 -262.5 132t-96.5 353z" />
<glyph unicode="&#xe8;" horiz-adv-x="937" d="M94 471q0 236 108.5 365t297.5 129q86 0 150.5 -29t108.5 -79t65.5 -118.5t21.5 -150.5q0 -35 -4 -67t-8 -54h-639q0 -193 81 -297t226 -104q102 0 162.5 44t87.5 142l92 -21q-27 -135 -121 -192t-229 -57q-184 0 -292 122.5t-108 366.5zM199 553h542q2 14 2 26.5v28.5 q0 57 -16 106.5t-48 86.5t-78 57.5t-107 20.5q-133 0 -207 -86t-88 -240zM264 1370h145l146 -278h-88z" />
<glyph unicode="&#xe9;" horiz-adv-x="937" d="M94 471q0 236 108.5 365t297.5 129q86 0 150.5 -29t108.5 -79t65.5 -118.5t21.5 -150.5q0 -35 -4 -67t-8 -54h-639q0 -193 81 -297t226 -104q102 0 162.5 44t87.5 142l92 -21q-27 -135 -121 -192t-229 -57q-184 0 -292 122.5t-108 366.5zM199 553h542q2 14 2 26.5v28.5 q0 57 -16 106.5t-48 86.5t-78 57.5t-107 20.5q-133 0 -207 -86t-88 -240zM448 1092l146 278h143l-203 -278h-86z" />
<glyph unicode="&#xea;" horiz-adv-x="937" d="M94 471q0 236 108.5 365t297.5 129q86 0 150.5 -29t108.5 -79t65.5 -118.5t21.5 -150.5q0 -35 -4 -67t-8 -54h-639q0 -193 81 -297t226 -104q102 0 162.5 44t87.5 142l92 -21q-27 -135 -121 -192t-229 -57q-184 0 -292 122.5t-108 366.5zM199 553h542q2 14 2 26.5v28.5 q0 57 -16 106.5t-48 86.5t-78 57.5t-107 20.5q-133 0 -207 -86t-88 -240zM233 1092l238 278h57l238 -278h-113l-90 108q-16 18 -26.5 33.5t-18.5 26.5q-8 12 -15 24h-8q-6 -12 -14 -24q-8 -10 -18.5 -25.5t-24.5 -34.5l-92 -108h-113z" />
<glyph unicode="&#xeb;" horiz-adv-x="937" d="M94 471q0 236 108.5 365t297.5 129q86 0 150.5 -29t108.5 -79t65.5 -118.5t21.5 -150.5q0 -35 -4 -67t-8 -54h-639q0 -193 81 -297t226 -104q102 0 162.5 44t87.5 142l92 -21q-27 -135 -121 -192t-229 -57q-184 0 -292 122.5t-108 366.5zM199 553h542q2 14 2 26.5v28.5 q0 57 -16 106.5t-48 86.5t-78 57.5t-107 20.5q-133 0 -207 -86t-88 -240zM246 1219q0 33 22.5 55t55.5 22q35 0 56.5 -22.5t21.5 -54.5q0 -33 -21.5 -55.5t-56.5 -22.5q-33 0 -55.5 22.5t-22.5 55.5zM598 1217q0 35 22.5 56t55.5 21t55.5 -21.5t22.5 -55.5 q0 -31 -22.5 -53.5t-55.5 -22.5t-55.5 22.5t-22.5 53.5z" />
<glyph unicode="&#xec;" horiz-adv-x="419" d="M-29 1370h145l146 -278h-88zM158 0v946h104v-946h-104z" />
<glyph unicode="&#xed;" horiz-adv-x="419" d="M158 0v946h104v-946h-104zM160 1092l146 278h143l-203 -278h-86z" />
<glyph unicode="&#xee;" horiz-adv-x="419" d="M-55 1092l238 278h57l238 -278h-113l-90 108q-16 18 -26.5 33.5t-18.5 26.5q-8 12 -15 24h-8q-6 -12 -14 -24q-8 -10 -18.5 -25.5t-24.5 -34.5l-92 -108h-113zM158 0v946h104v-946h-104z" />
<glyph unicode="&#xef;" horiz-adv-x="419" d="M-43 1219q0 33 22.5 55t55.5 22q35 0 56.5 -22.5t21.5 -54.5q0 -33 -21.5 -55.5t-56.5 -22.5q-33 0 -55.5 22.5t-22.5 55.5zM158 0v946h104v-946h-104zM309 1217q0 35 22.5 56t55.5 21t55.5 -21.5t22.5 -55.5q0 -31 -22.5 -53.5t-55.5 -22.5t-55.5 22.5t-22.5 53.5z" />
<glyph unicode="&#xf0;" horiz-adv-x="999" d="M94 469q0 240 106.5 361.5t280.5 121.5q92 0 159 -36.5t108 -96.5h6q-29 80 -76 156t-113 141l-305 -76l-18 62l270 65q-47 43 -115.5 84t-136.5 70l76 55q78 -33 148.5 -79t129.5 -101l211 51l19 -63l-174 -43q113 -129 174 -295t61 -342q0 -268 -109.5 -395 t-297.5 -127q-186 0 -295 123.5t-109 363.5zM197 469q0 -195 76.5 -299t224.5 -104q150 0 225.5 104t75.5 299q0 197 -78 298t-225 101t-223 -101t-76 -298z" />
<glyph unicode="&#xf1;" horiz-adv-x="1007" d="M158 0v946h80l14 -217q33 109 115 172.5t202 63.5q61 0 114.5 -17.5t91.5 -53.5t60.5 -92.5t22.5 -135.5v-666h-104v639q0 113 -53.5 173t-155.5 60q-55 0 -106.5 -19t-90.5 -61t-62.5 -105.5t-23.5 -149.5v-537h-104zM229.5 1186q1.5 39 19 67.5t49.5 45t73 16.5 q51 0 85.5 -19.5t73.5 -46.5q37 -27 61.5 -41t55.5 -14q39 0 58.5 28.5t9.5 96.5h71q31 -96 -6 -155.5t-127 -59.5q-47 0 -79.5 18.5t-67.5 40.5q-39 27 -65.5 43.5t-59.5 16.5q-41 0 -61.5 -28t-8.5 -93h-67q-16 45 -14.5 84z" />
<glyph unicode="&#xf2;" d="M94 477q0 242 108.5 365t295.5 123q190 0 297.5 -123t107.5 -365t-107.5 -368.5t-297.5 -126.5q-186 0 -295 127t-109 368zM197 477q0 -205 76.5 -308t224.5 -103q147 0 225 103t78 308q0 201 -78 300.5t-225 99.5t-224 -99.5t-77 -300.5zM262 1370h145l146 -278h-88z " />
<glyph unicode="&#xf3;" d="M94 477q0 242 108.5 365t295.5 123q190 0 297.5 -123t107.5 -365t-107.5 -368.5t-297.5 -126.5q-186 0 -295 127t-109 368zM197 477q0 -205 76.5 -308t224.5 -103q147 0 225 103t78 308q0 201 -78 300.5t-225 99.5t-224 -99.5t-77 -300.5zM446 1092l146 278h143 l-203 -278h-86z" />
<glyph unicode="&#xf4;" d="M94 477q0 242 108.5 365t295.5 123q190 0 297.5 -123t107.5 -365t-107.5 -368.5t-297.5 -126.5q-186 0 -295 127t-109 368zM197 477q0 -205 76.5 -308t224.5 -103q147 0 225 103t78 308q0 201 -78 300.5t-225 99.5t-224 -99.5t-77 -300.5zM231 1092l238 278h57l238 -278 h-113l-90 108q-16 18 -26.5 33.5t-18.5 26.5q-8 12 -15 24h-8q-6 -12 -14 -24q-8 -10 -18.5 -25.5t-24.5 -34.5l-92 -108h-113z" />
<glyph unicode="&#xf5;" d="M94 477q0 242 108.5 365t295.5 123q190 0 297.5 -123t107.5 -365t-107.5 -368.5t-297.5 -126.5q-186 0 -295 127t-109 368zM197 477q0 -205 76.5 -308t224.5 -103q147 0 225 103t78 308q0 201 -78 300.5t-225 99.5t-224 -99.5t-77 -300.5zM213.5 1186q1.5 39 19 67.5 t49.5 45t73 16.5q51 0 85.5 -19.5t73.5 -46.5q37 -27 61.5 -41t55.5 -14q39 0 58.5 28.5t9.5 96.5h71q31 -96 -6 -155.5t-127 -59.5q-47 0 -79.5 18.5t-67.5 40.5q-39 27 -65.5 43.5t-59.5 16.5q-41 0 -61.5 -28t-8.5 -93h-67q-16 45 -14.5 84z" />
<glyph unicode="&#xf6;" d="M94 477q0 242 108.5 365t295.5 123q190 0 297.5 -123t107.5 -365t-107.5 -368.5t-297.5 -126.5q-186 0 -295 127t-109 368zM197 477q0 -205 76.5 -308t224.5 -103q147 0 225 103t78 308q0 201 -78 300.5t-225 99.5t-224 -99.5t-77 -300.5zM244 1219q0 33 22.5 55t55.5 22 q35 0 56.5 -22.5t21.5 -54.5q0 -33 -21.5 -55.5t-56.5 -22.5q-33 0 -55.5 22.5t-22.5 55.5zM596 1217q0 35 22.5 56t55.5 21t55.5 -21.5t22.5 -55.5q0 -31 -22.5 -53.5t-55.5 -22.5t-55.5 22.5t-22.5 53.5z" />
<glyph unicode="&#xf7;" horiz-adv-x="1038" d="M100 473v70h836v-70h-836zM442 152q0 29 20.5 50t49.5 21t50.5 -21.5t21.5 -49.5q0 -29 -21.5 -49.5t-50.5 -20.5t-49.5 20.5t-20.5 49.5zM442 850q0 31 20.5 52.5t49.5 21.5t50.5 -21.5t21.5 -52.5q0 -29 -21.5 -49.5t-50.5 -20.5t-49.5 20.5t-20.5 49.5z" />
<glyph unicode="&#xf8;" d="M70 33l102 119q-78 121 -78 325q0 242 108.5 365t295.5 123q178 0 282 -111l92 109l66 -54l-107 -123q72 -119 72 -309q0 -242 -107.5 -368.5t-297.5 -126.5q-168 0 -273 100l-90 -102zM197 477q0 -150 47 -248l473 555q-80 93 -219 93q-147 0 -224 -99.5t-77 -300.5z M287 154q78 -88 211 -88q147 0 225 103t78 308q0 70 -11.5 127.5t-31.5 100.5z" />
<glyph unicode="&#xf9;" d="M141 293v653h105v-641q0 -127 53 -185.5t158 -58.5q55 0 105 22.5t88 66t61.5 105.5t23.5 142v549h105v-946h-88l-15 207q-31 -111 -110.5 -168t-196.5 -57q-129 0 -209 71.5t-80 239.5zM254 1370h145l146 -278h-88z" />
<glyph unicode="&#xfa;" d="M141 293v653h105v-641q0 -127 53 -185.5t158 -58.5q55 0 105 22.5t88 66t61.5 105.5t23.5 142v549h105v-946h-88l-15 207q-31 -111 -110.5 -168t-196.5 -57q-129 0 -209 71.5t-80 239.5zM438 1092l146 278h143l-203 -278h-86z" />
<glyph unicode="&#xfb;" d="M141 293v653h105v-641q0 -127 53 -185.5t158 -58.5q55 0 105 22.5t88 66t61.5 105.5t23.5 142v549h105v-946h-88l-15 207q-31 -111 -110.5 -168t-196.5 -57q-129 0 -209 71.5t-80 239.5zM223 1092l238 278h57l238 -278h-113l-90 108q-16 18 -26.5 33.5t-18.5 26.5 q-8 12 -15 24h-8q-6 -12 -14 -24q-8 -10 -18.5 -25.5t-24.5 -34.5l-92 -108h-113z" />
<glyph unicode="&#xfc;" d="M141 293v653h105v-641q0 -127 53 -185.5t158 -58.5q55 0 105 22.5t88 66t61.5 105.5t23.5 142v549h105v-946h-88l-15 207q-31 -111 -110.5 -168t-196.5 -57q-129 0 -209 71.5t-80 239.5zM235 1219q0 33 22.5 55t55.5 22q35 0 56.5 -22.5t21.5 -54.5q0 -33 -21.5 -55.5 t-56.5 -22.5q-33 0 -55.5 22.5t-22.5 55.5zM587 1217q0 35 22.5 56t55.5 21t55.5 -21.5t22.5 -55.5q0 -31 -22.5 -53.5t-55.5 -22.5t-55.5 22.5t-22.5 53.5z" />
<glyph unicode="&#xfd;" horiz-adv-x="854" d="M-4 -397l12 90q57 -33 123 -33q43 0 76 16.5t62.5 51t56 92t55.5 141.5l-356 985h112l228 -651q33 -100 49 -164q8 -35 14 -61h6q6 25 15 59q8 29 20 70t29 92l223 655h108l-350 -995q-35 -102 -71.5 -173t-78.5 -117t-91.5 -66.5t-108.5 -20.5q-35 0 -70.5 8t-62.5 21z M379 1092l146 278h143l-203 -278h-86z" />
<glyph unicode="&#xfe;" horiz-adv-x="1052" d="M158 -416v1784h104v-618q33 109 121 162t199 53q172 0 274 -119t102 -354q0 -115 -27.5 -209.5t-79.5 -161t-127 -103t-169 -36.5q-123 0 -194.5 55t-98.5 131v-584h-104zM262 371q0 -80 24.5 -138.5t64.5 -96.5t90.5 -55.5t101.5 -17.5q66 0 122 25t98 77t65.5 131 t23.5 187q0 199 -80 295t-211 96q-59 0 -113.5 -20t-95.5 -61t-65.5 -102.5t-24.5 -143.5v-176z" />
<glyph unicode="&#xff;" horiz-adv-x="854" d="M-4 -397l12 90q57 -33 123 -33q43 0 76 16.5t62.5 51t56 92t55.5 141.5l-356 985h112l228 -651q33 -100 49 -164q8 -35 14 -61h6q6 25 15 59q8 29 20 70t29 92l223 655h108l-350 -995q-35 -102 -71.5 -173t-78.5 -117t-91.5 -66.5t-108.5 -20.5q-35 0 -70.5 8t-62.5 21z M178 1219q0 33 22.5 55t55.5 22q35 0 56.5 -22.5t21.5 -54.5q0 -33 -21.5 -55.5t-56.5 -22.5q-33 0 -55.5 22.5t-22.5 55.5zM530 1217q0 35 22.5 56t55.5 21t55.5 -21.5t22.5 -55.5q0 -31 -22.5 -53.5t-55.5 -22.5t-55.5 22.5t-22.5 53.5z" />
<glyph unicode="&#x152;" horiz-adv-x="1738" d="M98 602q0 150 37 265.5t105.5 195.5t165 121t217.5 41q82 0 149 -19h860v-94h-688q92 -70 143.5 -185.5t57.5 -275.5h424v-94h-424q-6 -164 -57.5 -279.5t-143.5 -183.5h688v-94h-860q-67 -18 -149 -18q-121 0 -217.5 40.5t-165 119.5t-105.5 195t-37 265zM213 602 q0 -248 103.5 -387t306.5 -139t306 139t103 387q0 246 -104 387t-305 141t-305.5 -141t-104.5 -387z" />
<glyph unicode="&#x153;" horiz-adv-x="1646" d="M94 477q0 242 108.5 365t295.5 123q129 0 224 -60.5t130 -185.5q41 121 134 183.5t220 62.5q86 0 151.5 -29t109.5 -79t65.5 -118.5t21.5 -150.5q0 -35 -4 -67t-10 -54h-637q-2 -193 80 -297t225 -104q104 0 165 44t87 142l92 -21q-27 -135 -121 -192t-229 -57 q-125 0 -218 58t-134 187q-37 -125 -129 -185t-223 -60q-186 0 -295 127t-109 368zM197 477q0 -205 76.5 -308t224.5 -103q147 0 225 103t78 308q0 201 -78 300.5t-225 99.5t-224 -99.5t-77 -300.5zM905 553h545q2 14 2 26.5v28.5q0 57 -16.5 106.5t-48 86.5t-77.5 57.5 t-108 20.5q-133 0 -207.5 -86t-89.5 -240z" />
<glyph unicode="&#x178;" horiz-adv-x="960" d="M29 1206h123l241 -442q29 -51 46.5 -87t27.5 -59l20 -45h7q6 18 18 45q10 23 26.5 59t45.5 87l233 442h113l-389 -723v-483h-107v483zM225 1413q0 33 22.5 55.5t55.5 22.5q35 0 56.5 -22.5t21.5 -55.5t-21.5 -55.5t-56.5 -22.5q-33 0 -55.5 22.5t-22.5 55.5zM577 1411 q0 35 22.5 56.5t55.5 21.5t55.5 -21.5t22.5 -56.5q0 -33 -22.5 -55.5t-55.5 -22.5t-55.5 22.5t-22.5 55.5z" />
<glyph unicode="&#x2c6;" horiz-adv-x="876" d="M172 1092l238 278h57l238 -278h-113l-90 108q-16 18 -26.5 33.5t-18.5 26.5q-8 12 -15 24h-8q-6 -12 -14 -24q-8 -10 -18.5 -25.5t-24.5 -34.5l-92 -108h-113z" />
<glyph unicode="&#x2dc;" horiz-adv-x="929" d="M180.5 1186q1.5 39 19 67.5t49.5 45t73 16.5q51 0 85.5 -19.5t73.5 -46.5q37 -27 61.5 -41t55.5 -14q39 0 58.5 28.5t9.5 96.5h71q31 -96 -6 -155.5t-127 -59.5q-47 0 -79.5 18.5t-67.5 40.5q-39 27 -65.5 43.5t-59.5 16.5q-41 0 -61.5 -28t-8.5 -93h-67q-16 45 -14.5 84 z" />
<glyph unicode="&#x2000;" horiz-adv-x="819" />
<glyph unicode="&#x2001;" horiz-adv-x="1638" />
<glyph unicode="&#x2002;" horiz-adv-x="819" />
<glyph unicode="&#x2003;" horiz-adv-x="1638" />
<glyph unicode="&#x2004;" horiz-adv-x="546" />
<glyph unicode="&#x2005;" horiz-adv-x="409" />
<glyph unicode="&#x2006;" horiz-adv-x="273" />
<glyph unicode="&#x2007;" horiz-adv-x="273" />
<glyph unicode="&#x2008;" horiz-adv-x="204" />
<glyph unicode="&#x2009;" horiz-adv-x="327" />
<glyph unicode="&#x200a;" horiz-adv-x="91" />
<glyph unicode="&#x2010;" horiz-adv-x="763" d="M152 500v90h458v-90h-458z" />
<glyph unicode="&#x2011;" horiz-adv-x="763" d="M152 500v90h458v-90h-458z" />
<glyph unicode="&#x2012;" horiz-adv-x="763" d="M152 500v90h458v-90h-458z" />
<glyph unicode="&#x2013;" horiz-adv-x="1042" d="M152 492v79h737v-79h-737z" />
<glyph unicode="&#x2014;" horiz-adv-x="2066" d="M152 492v79h1761v-79h-1761z" />
<glyph unicode="&#x2018;" horiz-adv-x="436" d="M131 1159q0 106 59.5 160.5t167.5 58.5v-57q-63 -6 -100 -37t-39 -92q0 -4 1 -9t1 -7q8 4 14.5 6t16.5 2q35 0 54.5 -21.5t19.5 -54.5q0 -37 -23.5 -58.5t-64.5 -21.5t-74 32.5t-33 98.5z" />
<glyph unicode="&#x2019;" horiz-adv-x="436" d="M90 1028v57q63 6 101 36t40 93q0 8 -4 17q-6 -4 -12 -6t-16 -2q-35 0 -55.5 21.5t-20.5 53.5q0 37 23.5 58.5t64.5 21.5t73.5 -34t32.5 -97q0 -106 -59 -160.5t-168 -58.5z" />
<glyph unicode="&#x201a;" horiz-adv-x="436" d="M90 -125q63 6 101 37t40 92q0 12 -4 16q-6 -4 -12 -6t-16 -2q-35 0 -55.5 21.5t-20.5 54.5q0 37 23.5 58.5t64.5 21.5t73.5 -32.5t32.5 -98.5q0 -106 -59 -160.5t-168 -58.5v57z" />
<glyph unicode="&#x201c;" horiz-adv-x="731" d="M131 1159q0 106 59.5 160.5t167.5 58.5v-57q-63 -6 -100 -37t-39 -92q0 -4 1 -9t1 -7q8 4 14.5 6t16.5 2q35 0 54.5 -21.5t19.5 -54.5q0 -37 -23.5 -58.5t-64.5 -21.5t-74 32.5t-33 98.5zM426 1159q0 106 59.5 160.5t167.5 58.5v-57q-63 -6 -100 -37t-39 -92q0 -12 4 -16 q6 4 12.5 6t16.5 2q35 0 54.5 -21.5t19.5 -54.5q0 -37 -24 -58.5t-65 -21.5t-73.5 32.5t-32.5 98.5z" />
<glyph unicode="&#x201d;" horiz-adv-x="731" d="M90 1028v57q63 6 101 36t40 93q0 8 -4 17q-6 -4 -12 -6t-16 -2q-35 0 -55.5 21.5t-20.5 53.5q0 37 23.5 58.5t64.5 21.5t73.5 -34t32.5 -97q0 -106 -59 -160.5t-168 -58.5zM387 1028v57q63 6 100 36t39 93q0 8 -4 17q-6 -4 -12 -6t-16 -2q-35 0 -54.5 21.5t-19.5 53.5 q0 37 23.5 58.5t64.5 21.5t73.5 -34t32.5 -97q0 -106 -60 -160.5t-167 -58.5z" />
<glyph unicode="&#x201e;" horiz-adv-x="731" d="M90 -125q63 6 101 37t40 92q0 12 -4 16q-6 -4 -12 -6t-16 -2q-35 0 -55.5 21.5t-20.5 54.5q0 37 23.5 58.5t64.5 21.5t73.5 -32.5t32.5 -98.5q0 -106 -59 -160.5t-168 -58.5v57zM387 -125q63 6 100 37t39 92q0 12 -4 16q-6 -4 -12 -6t-16 -2q-35 0 -54.5 21.5t-19.5 54.5 q0 37 23.5 58.5t64.5 21.5t73.5 -32.5t32.5 -98.5q0 -106 -60 -160.5t-167 -58.5v57z" />
<glyph unicode="&#x2022;" horiz-adv-x="610" d="M178 514q0 53 37 91t90 38t90 -38t37 -91q0 -51 -37 -88t-90 -37t-90 37t-37 88z" />
<glyph unicode="&#x2026;" horiz-adv-x="1570" d="M166 80q0 37 24.5 61.5t61.5 24.5t61.5 -24.5t24.5 -61.5t-24.5 -61.5t-61.5 -24.5t-61.5 24.5t-24.5 61.5zM698 80q0 37 25 61.5t61 24.5q39 0 63.5 -24.5t24.5 -61.5t-24.5 -61.5t-63.5 -24.5q-37 0 -61.5 24.5t-24.5 61.5zM1231 80q0 37 24.5 61.5t63.5 24.5 q37 0 61.5 -24.5t24.5 -61.5t-24.5 -61.5t-61.5 -24.5q-39 0 -63.5 24.5t-24.5 61.5z" />
<glyph unicode="&#x202f;" horiz-adv-x="327" />
<glyph unicode="&#x2039;" horiz-adv-x="600" d="M88 477l358 422l64 -61l-221 -256q-29 -35 -49.5 -54.5t-30.5 -29.5q-14 -12 -21 -17v-8q8 -6 23 -18q12 -10 30.5 -31t47.5 -55l221 -260l-64 -54z" />
<glyph unicode="&#x203a;" horiz-adv-x="600" d="M90 109l221 260q29 35 47.5 55t30.5 31q14 12 23 18v8q-8 4 -21 17q-12 10 -31.5 29.5t-48.5 54.5l-221 256l64 61l358 -422l-358 -422z" />
<glyph unicode="&#x205f;" horiz-adv-x="409" />
<glyph unicode="&#x20ac;" horiz-adv-x="1138" d="M68 453v73h110v74v43.5t2 42.5h-112v74h120q37 227 169 346t327 119q295 0 401 -287l-96 -47q-41 121 -119.5 181.5t-193.5 60.5q-154 0 -249 -98.5t-124 -274.5h467l-16 -74h-459q-2 -23 -2 -43v-43v-36.5t2 -37.5h424l-17 -73h-401q27 -180 119 -277.5t250 -97.5 q123 0 201.5 53t134.5 168l79 -61q-66 -129 -166 -192.5t-253 -63.5q-193 0 -320 119.5t-160 351.5h-118z" />
<glyph unicode="&#x2122;" horiz-adv-x="1206" d="M41 1141v65h408v-65h-166v-443h-76v443h-166zM561 698v508h101l151 -315h6l152 315h94v-508h-74v392h-6l-137 -289h-64l-141 289h-6v-392h-76z" />
<glyph unicode="&#x25fc;" horiz-adv-x="942" d="M0 0v942h942v-942h-942z" />
<glyph unicode="&#xfb03;" horiz-adv-x="1443" d="M45 860v86h137v119q0 80 20.5 137.5t57.5 93t86 52t105 16.5q55 0 94 -11.5t73 -33.5l-28 -90q-35 25 -69 35t-75 10q-76 0 -117.5 -51.5t-41.5 -155.5v-121h395v107q0 92 25.5 154.5t68.5 101.5t97.5 56t111.5 17q66 0 124 -14t105 -49l-40 -86q-35 25 -81 43t-108 18 q-90 0 -144.5 -56t-54.5 -191v-101h500v-946h-104v860h-396v-860h-104v860h-395v-860h-105v860h-137z" />
<glyph unicode="&#xfb04;" horiz-adv-x="1495" d="M45 860v86h137v119q0 80 20.5 137.5t57.5 93t86 52t105 16.5q55 0 94 -11.5t73 -33.5l-28 -90q-35 25 -69 35t-75 10q-76 0 -117.5 -51.5t-41.5 -155.5v-121h395v115q0 88 26.5 149.5t70.5 100.5t99.5 55t112.5 16q66 0 118 -14t89 -37l64 37h24v-1186q0 -57 24.5 -79.5 t63.5 -22.5q20 0 33.5 3t30.5 7v-90q-27 -6 -45.5 -8t-38.5 -2q-78 0 -125 44t-47 134v1075q-39 23 -86 38t-103 15q-88 0 -147.5 -54t-59.5 -185v-111h222v-86h-222v-860h-104v860h-395v-860h-105v860h-137z" />
</font>
</defs>
</svg>
